<?xml version="1.0" standalone="no"?>
<!DOCTYPE svg PUBLIC "-//W3C//DTD SVG 1.1//EN" "http://www.w3.org/Graphics/SVG/1.1/DTD/svg11.dtd" >
<svg xmlns="http://www.w3.org/2000/svg" xmlns:xlink="http://www.w3.org/1999/xlink" version="1.1">
<metadata>
Created by FontForge 20201107 at Wed Oct 30 13:22:16 2024
 By 
Gome Pixel  Fitrah Type 2023. All Rights Reserved.
</metadata>
<defs>
<font id="GomePixel-Regular" horiz-adv-x="1126" >
  <font-face 
    font-family="Gome Pixel"
    font-weight="400"
    font-stretch="normal"
    units-per-em="2048"
    panose-1="0 0 0 0 0 0 0 0 0 0"
    ascent="1638"
    descent="-410"
    x-height="1024"
    cap-height="1434"
    bbox="-102 -717 2560 2150"
    underline-thickness="102"
    underline-position="-255"
    unicode-range="U+0020-2265"
  />
<missing-glyph horiz-adv-x="1024" 
d="M840 1638v-2048h-650v2048h650zM342 -268h340v67h-209l143 97h66v67h-340v-67h143l-143 -97v-67zM342 10h340v232h-340v-232zM342 365h340v231h-205v-115h70v47h67v-96h-204v164h-68v-231zM342 641h340v205h-68v-135h-272v-70zM342 758h205v143h135v68h-340v-68h135v-76
h-135v-67zM342 1024h340v70h-135v143h-205v-213zM342 1290h340v68h-135v76h135v67h-338v-67h133v-76h-135v-68zM410 78v96h204v-96h-204zM410 1094v73h67v-73h-67z" />
    <glyph glyph-name="E_D.liga" unicode="ED" horiz-adv-x="2252" 
d="M205 1331h-103v103h820v-205h-615v-410h512v-102h-102v-103h-410v-409h819v1229h615v-103h102v-102h103v-103h102v-204h102v-512h-102v-205h-102v-103h-205v-102h-1639v1229h103v102zM1229 1229h102v-1024h307v102h205v205h103v410h-103v102h-102v102h-103v103h-305v102
h-104v-102z" />
    <glyph glyph-name="E_R.liga" unicode="ER" horiz-adv-x="2150" 
d="M205 1331h-103v103h1536v-103h205v-102h103v-103h102v-512h-102v-102h-205v-102h102v-103h103v-102h102v-205h-205v205h-205v102h-102v103h-205v-410h-205v1229h-819v-410h512v-102h-102v-103h-410v-409h615v-205h-820v1229h103v102zM1229 819h102v-205h410v103h102v307
h-102v102h-103v103h-307v-307h-102v-103z" />
    <glyph glyph-name="G_H.liga" unicode="GH" horiz-adv-x="2560" 
d="M410 0v102h-205v205h-103v819h103v103h102v102h103v103h614v-103h102v-102h103v-205h-205v102h-102v103h-410v-103h-102v-102h-103v-614h103v-103h102v-102h410v102h102v205h-410v102h-102v103h922v717h204v-717h615v717h205v-1434h-205v512h-512v102h-103v-614h-204v512
h-205v-307h-103v-103h-102v-102h-614z" />
    <glyph glyph-name="L_A.liga" unicode="LA" horiz-adv-x="2355" 
d="M102 1434h205v-1229h819v205h103v307h102v205h103v204h102v205h102v103h103v-103h102v-205h103v-204h102v-205h102v-307h103v-410h-205v307h-512v103h-102v-103h-103v-205h-102v-102h-1024v102h-103v1332zM1434 512h512v205h-103v205h-102v204h-103v-204h-102v-205h-102
v-205z" />
    <glyph glyph-name="M_P.liga" unicode="MP" horiz-adv-x="2560" 
d="M102 0v1434h205v-205h103v-103h102v-204h102v-103h205v205h103v102h102v103h102v205h205v-820h205v820h614v-103h103v-102h102v-103h103v-512h-103v-102h-205v-102h-409v-410h-205v410h-307v-103h102v-307h-205v922h-102v-103h-102v-205h-103v-204h-205v204h-102v103
h-102v205h-101v102h-104v-102h102v-922h-205zM1638 819h103v-205h307v103h205v307h-103v102h-102v103h-307v-307h-103v-103z" />
    <glyph glyph-name="T_R.liga" unicode="TR" horiz-adv-x="2355" 
d="M102 1229v205h1741v-103h205v-102h102v-103h103v-512h-103v-102h-204v-102h102v-103h102v-102h103v-205h-205v205h-205v102h-102v103h-205v-410h-205v1229h-614v-1024h-103v-103h103v-102h-205v1229h-410zM1434 819h102v-205h410v103h102v307h-102v102h-103v103h-307
v-307h-102v-103z" />
    <glyph glyph-name="f_f.liga" unicode="ff" horiz-adv-x="1638" 
d="M410 1434v102h307v-102h102v-205h-205v102h-102v-102h-102v-307h512v409h102v103h102v102h308v-102h102v-205h-205v102h-102v-102h-103v-307h205v-205h-205v-717h-204v717h-512v-717h-205v717h-103v205h103v409h102v103h103z" />
    <glyph glyph-name="s_a.liga" unicode="sa" horiz-adv-x="2048" 
d="M819 717v102h-512v-205h512v-102h103v-410h-103v-102h-614v102h-103v205h205v-102h410v205h-512v102h-103v410h103v102h717v-102h204v102h615v-102h102v-205h103v-717h-205v102h-103v-102h-409v102h-103v410h205v102h307v-102h103v205h-103v102h-512v-102h-307zM1331 205
h307v102h103v103h-410v-205z" />
    <glyph glyph-name="s_t.liga" unicode="st" horiz-adv-x="1945" 
d="M717 717v102h-410v-205h512v-102h103v-410h-103v-102h-614v102h-103v205h205v-102h410v205h-512v102h-103v410h103v102h614v-102h103v102h307v307h205v-307h204v-205h-204v-512h102v-102h102v102h205v-205h-102v-102h-307v102h-103v103h-102v614h-307v-102h-205z" />
    <glyph glyph-name="t_a.liga" unicode="ta" horiz-adv-x="2048" 
d="M512 102h-102v103h-103v614h-205v205h205v307h205v-307h410v-102h307v102h512v-102h102v-205h103v-717h-205v102h-103v-102h-409v102h-103v410h205v102h307v-102h103v205h-103v102h-307v-102h-205v102h-614v-512h102v-102h103v102h205v-205h-103v-102h-307v102zM1331 205
h307v102h103v103h-410v-205z" />
    <glyph glyph-name=".notdef" horiz-adv-x="1024" 
d="M840 1638v-2048h-650v2048h650zM342 -268h340v67h-209l143 97h66v67h-340v-67h143l-143 -97v-67zM342 10h340v232h-340v-232zM342 365h340v231h-205v-115h70v47h67v-96h-204v164h-68v-231zM342 641h340v205h-68v-135h-272v-70zM342 758h205v143h135v68h-340v-68h135v-76
h-135v-67zM342 1024h340v70h-135v143h-205v-213zM342 1290h340v68h-135v76h135v67h-338v-67h133v-76h-135v-68zM410 78v96h204v-96h-204zM410 1094v73h67v-73h-67z" />
    <glyph glyph-name=".null" horiz-adv-x="0" 
 />
    <glyph glyph-name="nonmarkingreturn" horiz-adv-x="682" 
 />
    <glyph glyph-name="space" unicode=" " horiz-adv-x="716" 
 />
    <glyph glyph-name="space" unicode="&#xa0;" horiz-adv-x="716" 
 />
    <glyph glyph-name="exclam" unicode="!" horiz-adv-x="409" 
d="M102 0v205h205v-205h-205zM102 410v1024h205v-1024h-205z" />
    <glyph glyph-name="quotedbl" unicode="&#x22;" horiz-adv-x="716" 
d="M102 1434h205v-512h-102v102h-103v410zM410 1024v410h204v-512h-102v102h-102z" />
    <glyph glyph-name="numbersign" unicode="#" horiz-adv-x="1638" 
d="M717 1434h205v-308h-103v-102h307v205h103v205h205v-308h-103v-102h205v-205h-307v-205h205v-204h-308v-205h-102v-205h-205v307h103v103h-308v-205h-102v-205h-205v307h103v103h-308v204h410v205h-307v205h409v205h103v205zM717 614h307v205h-307v-205z" />
    <glyph glyph-name="dollar" unicode="$" horiz-adv-x="1228" 
d="M922 1126h-103v103h-102v102h-103v-102h-204v-103h-103v-204h103v-103h307v-102h205v-103h102v-102h102v-307h-102v-103h-102v-102h-205v-205h-205v205h-205v102h-102v103h-103v205h205v-103h103v-102h204v-103h103v103h205v307h-205v102h-307v103h-205v102h-103v410h103
v102h102v103h205v204h205v-204h102v-103h205v-205h102v-204h-204v204z" />
    <glyph glyph-name="percent" unicode="%" horiz-adv-x="1638" 
d="M1126 410v102h308v-102h102v-512h-102v-103h-308v103h-102v512h102zM102 819v512h103v103h307v-103h102v-512h-102v-102h-307v102h-103zM307 922h103v307h-103v-307zM410 -307v307h102v205h102v307h103v307h102v307h103v205h102v205h205v-307h-103v-205h-102v-307h-102
v-307h-103v-205h-102v-307h-103v-205h-204zM1229 0h102v307h-102v-307z" />
    <glyph glyph-name="ampersand" unicode="&#x26;" horiz-adv-x="1433" 
d="M307 512v-205h103v-102h307v102h102v205h-102v102h-307v-102h-103zM102 205v409h103v103h102v102h-102v103h-103v307h103v102h102v103h512v-103h103v-102h102v-307h-102v-103h-103v-102h103v-103h102v205h205v-205h-103v-102h-102v-102h102v-103h103v-102h102v-205h-205
v102h-102v103h-102v-103h-103v-102h-512v102h-102v103h-103zM307 1024h103v-102h102v-103h102v103h103v102h102v102h-102v103h-103v102h-102v-102h-102v-103h-103v-102z" />
    <glyph glyph-name="quotesingle" unicode="'" horiz-adv-x="409" 
d="M102 1434h205v-512h-102v102h-103v410z" />
    <glyph glyph-name="parenleft" unicode="(" horiz-adv-x="716" 
d="M410 -307v102h-103v103h-102v204h-103v820h103v204h102v205h103v103h204v-205h-102v-103h-102v-307h-103v-614h103v-205h102v-102h102v-205h-204z" />
    <glyph glyph-name="parenright" unicode=")" horiz-adv-x="716" 
d="M102 -307v205h103v102h102v205h103v614h-103v307h-102v103h-103v205h205v-103h103v-205h102v-204h102v-820h-102v-204h-102v-103h-103v-102h-205z" />
    <glyph glyph-name="asterisk" unicode="*" horiz-adv-x="921" 
d="M717 1229v-103h-103v-102h103v-102h102v-205h-102v102h-103v103h-102v-205h-102v205h-103v-103h-102v-102h-103v205h103v102h102v102h-102v103h-103v205h103v-103h102v-102h103v205h102v-205h102v102h103v103h102v-205h-102z" />
    <glyph glyph-name="plus" unicode="+" horiz-adv-x="1228" 
d="M512 0v410h-410v204h410v410h205v-410h409v-204h-409v-410h-205z" />
    <glyph glyph-name="comma" unicode="," horiz-adv-x="409" 
d="M102 205h205v-307h-102v102h-103v205z" />
    <glyph glyph-name="hyphen" unicode="-" horiz-adv-x="819" 
d="M102 512v205h615v-205h-615z" />
    <glyph glyph-name="period" unicode="." horiz-adv-x="409" 
d="M102 0v205h205v-205h-205z" />
    <glyph glyph-name="slash" unicode="/" horiz-adv-x="1024" 
d="M614 1126v205h103v205h205v-307h-103v-205h-102v-307h-103v-307h-102v-205h-102v-307h-103v-205h-205v307h103v205h102v307h103v307h102v307h102z" />
    <glyph glyph-name="zero" unicode="0" horiz-adv-x="761" 
d="M0 162h49v1155h443q116 0 193 -80t77 -199h-187q0 44 -22 69.5t-64 25.5t-70 -28.5t-28 -74.5v-868h55v-47h-446v47zM174 162h29v868q0 126 86 209h-115v-1077zM408 782q0 40 28 68.5t68 28.5t68 -28.5t28 -68.5t-28 -68t-68 -28t-68 28t-28 68z" />
    <glyph glyph-name="one" unicode="1" horiz-adv-x="761" 
d="M0 162h49v1155h443q116 0 193 -80t77 -199h-187q0 44 -22 69.5t-64 25.5t-70 -28.5t-28 -74.5v-868h55v-47h-446v47zM174 162h29v868q0 126 86 209h-115v-1077zM408 782q0 40 28 68.5t68 28.5t68 -28.5t28 -68.5t-28 -68t-68 -28t-68 28t-28 68z" />
    <glyph glyph-name="two" unicode="2" horiz-adv-x="761" 
d="M0 162h49v1155h443q116 0 193 -80t77 -199h-187q0 44 -22 69.5t-64 25.5t-70 -28.5t-28 -74.5v-868h55v-47h-446v47zM174 162h29v868q0 126 86 209h-115v-1077zM408 782q0 40 28 68.5t68 28.5t68 -28.5t28 -68.5t-28 -68t-68 -28t-68 28t-28 68z" />
    <glyph glyph-name="three" unicode="3" horiz-adv-x="761" 
d="M0 162h49v1155h443q116 0 193 -80t77 -199h-187q0 44 -22 69.5t-64 25.5t-70 -28.5t-28 -74.5v-868h55v-47h-446v47zM174 162h29v868q0 126 86 209h-115v-1077zM408 782q0 40 28 68.5t68 28.5t68 -28.5t28 -68.5t-28 -68t-68 -28t-68 28t-28 68z" />
    <glyph glyph-name="four" unicode="4" horiz-adv-x="761" 
d="M0 162h49v1155h443q116 0 193 -80t77 -199h-187q0 44 -22 69.5t-64 25.5t-70 -28.5t-28 -74.5v-868h55v-47h-446v47zM174 162h29v868q0 126 86 209h-115v-1077zM408 782q0 40 28 68.5t68 28.5t68 -28.5t28 -68.5t-28 -68t-68 -28t-68 28t-28 68z" />
    <glyph glyph-name="five" unicode="5" horiz-adv-x="761" 
d="M0 162h49v1155h443q116 0 193 -80t77 -199h-187q0 44 -22 69.5t-64 25.5t-70 -28.5t-28 -74.5v-868h55v-47h-446v47zM174 162h29v868q0 126 86 209h-115v-1077zM408 782q0 40 28 68.5t68 28.5t68 -28.5t28 -68.5t-28 -68t-68 -28t-68 28t-28 68z" />
    <glyph glyph-name="six" unicode="6" horiz-adv-x="761" 
d="M0 162h49v1155h443q116 0 193 -80t77 -199h-187q0 44 -22 69.5t-64 25.5t-70 -28.5t-28 -74.5v-868h55v-47h-446v47zM174 162h29v868q0 126 86 209h-115v-1077zM408 782q0 40 28 68.5t68 28.5t68 -28.5t28 -68.5t-28 -68t-68 -28t-68 28t-28 68z" />
    <glyph glyph-name="seven" unicode="7" horiz-adv-x="761" 
d="M0 162h49v1155h443q116 0 193 -80t77 -199h-187q0 44 -22 69.5t-64 25.5t-70 -28.5t-28 -74.5v-868h55v-47h-446v47zM174 162h29v868q0 126 86 209h-115v-1077zM408 782q0 40 28 68.5t68 28.5t68 -28.5t28 -68.5t-28 -68t-68 -28t-68 28t-28 68z" />
    <glyph glyph-name="eight" unicode="8" horiz-adv-x="761" 
d="M0 162h49v1155h443q116 0 193 -80t77 -199h-187q0 44 -22 69.5t-64 25.5t-70 -28.5t-28 -74.5v-868h55v-47h-446v47zM174 162h29v868q0 126 86 209h-115v-1077zM408 782q0 40 28 68.5t68 28.5t68 -28.5t28 -68.5t-28 -68t-68 -28t-68 28t-28 68z" />
    <glyph glyph-name="nine" unicode="9" horiz-adv-x="761" 
d="M0 162h49v1155h443q116 0 193 -80t77 -199h-187q0 44 -22 69.5t-64 25.5t-70 -28.5t-28 -74.5v-868h55v-47h-446v47zM174 162h29v868q0 126 86 209h-115v-1077zM408 782q0 40 28 68.5t68 28.5t68 -28.5t28 -68.5t-28 -68t-68 -28t-68 28t-28 68z" />
    <glyph glyph-name="colon" unicode=":" horiz-adv-x="409" 
d="M102 717v205h205v-205h-205zM102 0v205h205v-205h-205z" />
    <glyph glyph-name="semicolon" unicode=";" horiz-adv-x="409" 
d="M102 205h205v-307h-102v102h-103v205zM102 717v205h205v-205h-205z" />
    <glyph glyph-name="less" unicode="&#x3c;" 
d="M307 410h-205v307h205v102h205v103h205v102h307v-102h-102v-103h-205v-102h-205v-103h-205v-102h205v-102h205v-103h205v-102h102v-103h-307v103h-205v102h-205v103z" />
    <glyph glyph-name="equal" unicode="=" horiz-adv-x="1024" 
d="M102 922h820v-205h-820v205zM102 307v205h820v-205h-820z" />
    <glyph glyph-name="greater" unicode="&#x3e;" 
d="M819 410v-103h-205v-102h-204v-103h-308v103h103v102h205v103h204v102h205v102h-205v103h-204v102h-205v103h-103v102h308v-102h204v-103h205v-102h205v-307h-205z" />
    <glyph glyph-name="question" unicode="?" 
d="M512 0v205h205v-205h-205zM102 1024v205h103v102h102v103h512v-103h103v-102h102v-410h-102v-102h-103v-103h-102v-204h-205v307h102v102h103v103h102v204h-102v103h-307v-103h-103v-102h-205z" />
    <glyph glyph-name="at" unicode="@" horiz-adv-x="1945" 
d="M1126 922h-307v-103h-102v-307h102v-102h205v102h102v410zM102 307v717h103v102h102v103h103v102h102v103h205v102h512v-102h205v-103h102v-102h102v-103h103v-102h102v-614h-102v-103h-103v-102h-102v-103h-205v103h-102v102h-103v-102h-409v102h-103v103h-102v512h102
v102h205v102h410v-102h102v-614h103v-103h102v205h102v307h-102v205h-102v102h-103v103h-102v102h-512v-102h-103v-103h-102v-102h-102v-205h-103v-409h103v-103h102v-102h102v-103h103v-102h614v-102h-102v-103h-512v103h-205v102h-102v102h-103v103h-102v102h-103z" />
    <glyph glyph-name="A" unicode="A" horiz-adv-x="1331" 
d="M102 410h103v307h102v205h103v204h102v205h102v103h103v-103h102v-205h103v-204h102v-205h102v-307h103v-410h-205v307h-512v103h-102v-103h-103v-307h-205v410zM410 512h512v205h-103v205h-102v204h-103v-204h-102v-205h-102v-205z" />
    <glyph glyph-name="B" unicode="B" horiz-adv-x="1228" 
d="M512 1331v-102h-205v-410h307v103h103v102h102v102h-102v103h-103v102h-102zM102 0v1434h717v-103h103v-102h102v-307h-102v-103h-103v-102h103v-103h102v-102h102v-307h-102v-103h-102v-102h-820zM307 205h205v-103h102v103h205v102h103v103h-103v102h-102v205h-103
v-103h-307v-409z" />
    <glyph glyph-name="C" unicode="C" horiz-adv-x="1331" 
d="M922 1229h-410v-103h-102v-102h-103v-614h103v-103h102v-102h410v102h102v205h102v102h103v-409h-103v-103h-102v-102h-614v102h-205v205h-103v819h103v103h102v102h103v103h614v-103h102v-102h103v-205h-205v102h-102v103z" />
    <glyph glyph-name="D" unicode="D" horiz-adv-x="1228" 
d="M102 1434h615v-103h102v-102h103v-103h102v-204h102v-512h-102v-205h-102v-103h-205v-102h-615v1434zM205 1229h102v-1024h307v102h205v205h103v410h-103v102h-102v102h-103v103h-305v102h-104v-102z" />
    <glyph glyph-name="E" unicode="E" horiz-adv-x="1024" 
d="M205 1331h-103v103h820v-205h-615v-410h512v-102h-102v-103h-410v-409h615v-205h-820v1229h103v102z" />
    <glyph glyph-name="F" unicode="F" 
d="M205 1331h-103v103h922v-205h-717v-410h512v-102h-102v-103h-410v-614h-205v1229h103v102z" />
    <glyph glyph-name="G" unicode="G" horiz-adv-x="1331" 
d="M922 1229h-410v-103h-102v-102h-103v-614h103v-103h102v-102h410v102h102v205h-410v102h-102v103h717v-512h-103v-103h-102v-102h-614v102h-205v205h-103v819h103v103h102v102h103v103h614v-103h102v-102h103v-205h-205v102h-102v103z" />
    <glyph glyph-name="H" unicode="H" horiz-adv-x="1228" 
d="M102 0v1434h205v-717h615v717h204v-1434h-204v512h-512v102h-103v-614h-205z" />
    <glyph glyph-name="I" unicode="I" horiz-adv-x="409" 
d="M102 0v1229h103v102h-103v103h205v-1434h-205z" />
    <glyph glyph-name="J" unicode="J" horiz-adv-x="1024" 
d="M717 1434h205v-1229h-103v-103h-102v-102h-410v102h-102v103h-103v205h103v102h102v-205h103v-102h204v102h103v1127z" />
    <glyph glyph-name="K" unicode="K" 
d="M102 1434h205v-717h103v102h102v103h102v102h103v205h102v205h205v-308h-102v-102h-103v-205h-102v-102h-103v-103h103v-102h102v-102h103v-205h102v-205h-205v205h-102v102h-103v103h-102v102h-205v-512h-205v1434z" />
    <glyph glyph-name="L" unicode="L" horiz-adv-x="1024" 
d="M102 1434h205v-1229h615v-103h-103v-102h-614v102h-103v1332z" />
    <glyph glyph-name="M" unicode="M" horiz-adv-x="1433" 
d="M102 0v1434h205v-205h103v-103h102v-204h102v-103h205v205h103v102h102v103h102v205h205v-1024h-102v-103h102v-307h-205v922h-102v-103h-102v-205h-103v-204h-205v204h-102v103h-102v205h-101v102h-104v-102h102v-922h-205z" />
    <glyph glyph-name="N" unicode="N" horiz-adv-x="1331" 
d="M102 0v1434h205v-308h103v-102h102v-102h102v-103h103v-102h102v-103h103v-102h102v922h205v-1434h-205v205h-102v102h-103v103h-102v102h-103v102h-102v103h-102v102h-103v-819h-205z" />
    <glyph glyph-name="O" unicode="O" horiz-adv-x="1433" 
d="M922 1229h-410v-103h-102v-102h-103v-307h-102v-103h102v-204h103v-103h102v-102h410v102h102v205h102v205h103v102h-103v205h-102v102h-102v103zM102 307v819h103v103h102v102h103v103h614v-103h102v-102h103v-103h102v-716h-102v-205h-103v-103h-102v-102h-614v102
h-205v205h-103z" />
    <glyph glyph-name="P" unicode="P" 
d="M102 0v1434h512v-103h205v-102h103v-103h102v-512h-102v-102h-205v-102h-410v-410h-205zM205 819h102v-205h410v103h102v307h-102v102h-103v103h-307v-307h-102v-103z" />
    <glyph glyph-name="Q" unicode="Q" horiz-adv-x="1638" 
d="M922 1229h-410v-103h-102v-102h-103v-307h-102v-103h102v-204h103v-103h102v-102h410v102h102v103h-102v102h-205v205h205v-103h102v-102h102v205h103v102h-103v205h-102v102h-102v103zM102 307v819h103v103h102v102h103v103h614v-103h102v-102h103v-103h102v-716h-102
v-103h102v-102h103v-103h102v-102h-205v102h-102v103h-103v-103h-102v-102h-614v102h-205v205h-103z" />
    <glyph glyph-name="R" unicode="R" 
d="M102 0v1434h512v-103h205v-102h103v-103h102v-512h-102v-102h-205v-102h102v-103h103v-102h102v-205h-205v205h-205v102h-102v103h-205v-410h-205zM205 819h102v-205h410v103h102v307h-102v102h-103v103h-307v-307h-102v-103z" />
    <glyph glyph-name="S" unicode="S" horiz-adv-x="1228" 
d="M922 1126h-103v103h-102v102h-103v-102h-204v-103h-103v-204h103v-103h307v-102h205v-103h102v-102h102v-307h-102v-103h-102v-102h-615v102h-102v103h-103v205h205v-103h103v-102h204v-103h103v103h205v307h-205v102h-307v103h-205v102h-103v410h103v102h102v103h512
v-103h205v-205h102v-204h-204v204z" />
    <glyph glyph-name="T" unicode="T" horiz-adv-x="1228" 
d="M102 1229v205h1024v-205h-409v-1024h-103v-103h103v-102h-205v1229h-410z" />
    <glyph glyph-name="U" unicode="U" horiz-adv-x="1331" 
d="M1126 205v-103h-102v-102h-717v102h-102v103h-103v1229h205v-1127h103v-102h204v-103h103v103h205v102h102v1127h205v-1229h-103z" />
    <glyph glyph-name="V" unicode="V" horiz-adv-x="1433" 
d="M102 1434h205v-512h103v-205h102v-205h102v-205h205v205h103v205h102v205h102v512h205v-410h-102v-307h-103v-205h-102v-205h-102v-205h-103v-102h-205v102h-102v205h-102v205h-103v205h-102v307h-103v410z" />
    <glyph glyph-name="W" unicode="W" horiz-adv-x="1945" 
d="M102 1434h205v-205h103v-307h102v-512h102v102h103v307h102v205h103v102h102v-102h102v-205h103v-307h102v-102h103v512h102v307h102v205h205v-308h-102v-307h-103v-409h-102v-205h-102v-205h-205v307h-103v205h-102v307h-102v-307h-103v-205h-102v-307h-205v205h-102
v205h-103v409h-102v307h-103v308z" />
    <glyph glyph-name="X" unicode="X" horiz-adv-x="1331" 
d="M102 1434h205v-308h103v-204h102v-103h102v-102h103v102h102v103h103v204h102v308h205v-410h-103v-102h-102v-205h-205v-103h205v-102h102v-102h103v-410h-205v307h-102v103h-103v102h-102v102h-103v-102h-102v-102h-102v-103h-103v-307h-205v410h103v102h102v102h205
v103h-205v205h-102v102h-103v410z" />
    <glyph glyph-name="Y" unicode="Y" horiz-adv-x="1433" 
d="M205 1229h-103v205h205v-103h103v-102h102v-205h102v-205h205v205h103v205h102v102h102v103h205v-205h-102v-103h-103v-204h-102v-103h-102v-205h-103v-614h-205v614h-102v205h-102v103h-103v204h-102v103z" />
    <glyph glyph-name="Z" unicode="Z" horiz-adv-x="1228" 
d="M102 0v307h103v205h102v102h103v103h102v102h102v103h103v102h102v102h103v103h-820v205h1024v-410h-102v-102h-102v-103h-103v-102h-102v-103h-103v-102h-102v-102h-102v-205h-103v-103h105v103h714v-205h-1024z" />
    <glyph glyph-name="bracketleft" unicode="[" horiz-adv-x="716" 
d="M102 -307v1741h512v-103h-102v-102h-205v-1331h205v-103h102v-102h-512z" />
    <glyph glyph-name="backslash" unicode="\" horiz-adv-x="1024" 
d="M410 1126h102v-307h102v-307h103v-307h102v-205h103v-307h-205v205h-103v307h-102v205h-102v307h-103v307h-102v205h-103v307h205v-205h103v-205z" />
    <glyph glyph-name="bracketright" unicode="]" horiz-adv-x="716" 
d="M102 -307v102h103v103h205v1331h-205v102h-103v103h512v-1741h-512z" />
    <glyph glyph-name="asciicircum" unicode="^" horiz-adv-x="921" 
d="M102 922v204h103v103h102v102h103v103h102v-103h102v-102h103v-103h102v-204h-205v102h-102v102h-102v-102h-103v-102h-205z" />
    <glyph glyph-name="underscore" unicode="_" horiz-adv-x="1228" 
d="M102 -102h1024v-205h-1024v205z" />
    <glyph glyph-name="a" unicode="a" horiz-adv-x="1024" 
d="M717 0v102h-103v-102h-409v102h-103v410h205v102h307v-102h103v205h-103v102h-307v-102h-205v205h205v102h410v-102h102v-205h103v-717h-205zM307 205h307v102h103v103h-410v-205z" />
    <glyph glyph-name="b" unicode="b" 
d="M102 1536h205v-614h103v102h409v-102h103v-103h102v-614h-102v-103h-103v-102h-409v102h-103v-102h-205v1536zM307 307h103v-102h409v614h-512v-512z" />
    <glyph glyph-name="c" unicode="c" 
d="M205 410h-103v204h103v205h102v103h103v102h409v-102h103v-103h102v-102h-205v102h-409v-205h-103v-204h103v-205h409v102h205v-102h-102v-103h-103v-102h-409v102h-103v103h-102v205z" />
    <glyph glyph-name="d" unicode="d" 
d="M1024 0h-205v102h-102v-102h-410v102h-102v103h-103v614h103v103h102v102h410v-102h102v614h205v-1536zM307 205h410v102h102v512h-512v-614z" />
    <glyph glyph-name="e" unicode="e" 
d="M205 410h-103v204h103v205h102v103h103v102h409v-102h103v-103h102v-307h-102v-102h-512v-205h409v102h205v-102h-102v-103h-103v-102h-409v102h-103v103h-102v205zM410 512h102v102h410v103h-103v102h-409v-307z" />
    <glyph glyph-name="f" unicode="f" horiz-adv-x="921" 
d="M410 1434v102h307v-102h102v-205h-205v102h-102v-102h-102v-307h204v-205h-204v-717h-205v717h-103v205h103v409h102v103h103z" />
    <glyph glyph-name="g" unicode="g" 
d="M819 922v102h205v-1229h-102v-102h-103v-103h-512v103h-102v102h-103v103h308v-103h307v103h102v204h-102v-102h-410v102h-102v103h-103v614h103v103h102v102h410v-102h102zM307 307h103v-102h307v102h102v410h-102v102h-307v-102h-103v-410z" />
    <glyph glyph-name="h" unicode="h" 
d="M102 1536h205v-614h103v102h409v-102h103v-103h102v-819h-205v819h-409v-102h-103v-717h-205v1536z" />
    <glyph glyph-name="i" unicode="i" horiz-adv-x="409" 
d="M102 1024h205v-1024h-205v1024zM102 1229v205h205v-205h-205z" />
    <glyph glyph-name="j" unicode="j" horiz-adv-x="614" 
d="M307 -205v-102h-307v205h205v102h102v1024h205v-1126h-102v-103h-103zM307 1229v205h205v-205h-205z" />
    <glyph glyph-name="k" unicode="k" horiz-adv-x="1024" 
d="M102 1536h205v-819h103v102h102v103h102v102h308v-102h-103v-103h-102v-102h-103v-103h-102v-102h102v-102h103v-103h102v-102h103v-205h-205v102h-103v103h-102v102h-102v103h-103v-410h-205v1536z" />
    <glyph glyph-name="l" unicode="l" horiz-adv-x="409" 
d="M102 1536h205v-1024h-102v-102h102v-410h-205v1536z" />
    <glyph glyph-name="m" unicode="m" horiz-adv-x="1843" 
d="M102 1024h205v-102h103v102h409v-102h103v-103h102v103h102v102h410v-102h102v-103h103v-819h-205v717h-102v102h-308v-102h-102v-717h-205v717h-102v102h-307v-102h-103v-717h-205v1024z" />
    <glyph glyph-name="n" unicode="n" 
d="M102 1024h205v-102h103v102h409v-102h103v-103h102v-819h-205v819h-409v-102h-103v-717h-205v1024z" />
    <glyph glyph-name="o" unicode="o" horiz-adv-x="1228" 
d="M205 410h-103v204h103v205h102v103h103v102h409v-102h103v-103h102v-205h102v-204h-102v-205h-102v-103h-103v-102h-409v102h-103v103h-102v205zM307 410h103v-205h409v205h103v204h-103v205h-409v-205h-103v-204z" />
    <glyph glyph-name="p" unicode="p" 
d="M102 1024h205v-102h103v102h409v-102h103v-103h102v-614h-102v-103h-103v-102h-409v102h-103v-512h-205v1434zM307 205h512v614h-409v-102h-103v-512z" />
    <glyph glyph-name="q" unicode="q" 
d="M1024 -410h-205v512h-102v-102h-410v102h-102v103h-103v614h103v103h102v102h410v-102h102v102h205v-1434zM307 205h512v512h-102v102h-410v-614z" />
    <glyph glyph-name="r" unicode="r" horiz-adv-x="819" 
d="M102 1024h205v-102h103v102h204v-102h103v-205h-103v102h-204v-102h-103v-717h-205v1024z" />
    <glyph glyph-name="s" unicode="s" horiz-adv-x="1024" 
d="M717 717v102h-410v-205h512v-102h103v-410h-103v-102h-614v102h-103v205h205v-102h410v205h-512v102h-103v410h103v102h614v-102h103v-205h-205z" />
    <glyph glyph-name="t" unicode="t" horiz-adv-x="1024" 
d="M512 102h-102v103h-103v614h-205v205h205v307h205v-307h205v-205h-205v-512h102v-102h103v102h205v-205h-103v-102h-307v102z" />
    <glyph glyph-name="u" unicode="u" 
d="M1024 0h-205v102h-102v-102h-410v102h-102v103h-103v819h205v-819h410v102h102v717h205v-1024z" />
    <glyph glyph-name="v" unicode="v" horiz-adv-x="1228" 
d="M1024 819v-205h-102v-307h-103v-102h-102v-205h-205v205h-102v102h-103v307h-102v205h-103v205h205v-205h103v-307h102v-205h205v205h102v307h103v205h204v-205h-102z" />
    <glyph glyph-name="w" unicode="w" horiz-adv-x="1740" 
d="M410 102h-103v103h-102v205h-103v614h205v-512h103v-307h102v205h102v204h103v205h102v103h103v-103h102v-205h102v-204h103v-205h102v307h103v512h204v-614h-102v-205h-102v-103h-103v-102h-205v102h-102v205h-102v307h-103v-307h-102v-205h-103v-102h-204v102z" />
    <glyph glyph-name="x" unicode="x" 
d="M819 0v102h-102v205h-103v103h-102v-103h-102v-205h-103v-102h-205v205h103v102h102v103h103v102h-103v102h-102v205h-103v205h205v-205h103v-205h102v-102h102v102h103v205h102v205h205v-205h-102v-205h-103v-102h-102v-102h102v-103h103v-102h102v-205h-205z" />
    <glyph glyph-name="y" unicode="y" 
d="M1024 -205h-102v-102h-103v-103h-512v103h-102v102h-103v103h308v-103h307v103h102v204h-102v-102h-410v102h-102v103h-103v819h205v-717h103v-102h307v102h102v717h205v-1229z" />
    <glyph glyph-name="z" unicode="z" horiz-adv-x="1024" 
d="M102 1024h820v-307h-103v-103h-102v-102h-103v-102h-102v-103h-102v-102h512v-205h-820v205h103v102h102v103h103v102h102v102h102v103h103v102h-615v205z" />
    <glyph glyph-name="braceleft" unicode="{" horiz-adv-x="819" 
d="M512 -307v102h-205v512h-102v103h-103v307h103v102h102v512h205v103h205v-205h-103v-103h-102v-512h-205v-102h205v-512h102v-102h103v-205h-205z" />
    <glyph glyph-name="bar" unicode="|" horiz-adv-x="409" 
d="M102 -307v1741h205v-1741h-205z" />
    <glyph glyph-name="braceright" unicode="}" horiz-adv-x="819" 
d="M102 -307v205h103v102h102v512h205v102h-205v512h-102v103h-103v205h205v-103h205v-512h102v-102h103v-307h-103v-103h-102v-512h-205v-102h-205z" />
    <glyph glyph-name="asciitilde" unicode="~" horiz-adv-x="1331" 
d="M307 717v102h307v-102h103v-103h102v-102h103v102h102v103h205v-205h-103v-102h-102v-103h-307v103h-103v102h-102v102h-102v-102h-103v-102h-205v204h103v103h102z" />
    <glyph glyph-name="exclamdown" unicode="&#xa1;" horiz-adv-x="409" 
d="M102 1434h205v-205h-205v205zM102 0v1024h205v-1024h-205z" />
    <glyph glyph-name="cent" unicode="&#xa2;" 
d="M205 614h-103v205h103v205h102v102h103v103h102v205h205v-205h102v-103h103v-102h102v-102h-205v102h-409v-205h-103v-205h103v-204h409v102h205v-102h-102v-103h-103v-102h-102v-205h-205v205h-102v102h-103v103h-102v204z" />
    <glyph glyph-name="sterling" unicode="&#xa3;" horiz-adv-x="1228" 
d="M307 1126v205h103v103h512v-103h102v-102h102v-103h-307v103h-205v-103h-102v-409h512v-205h-512v-307h614v-205h-1024v205h103v102h102v205h-102v205h102v205h-102v204h102z" />
    <glyph glyph-name="currency" unicode="&#xa4;" 
d="M819 614v103h-102v102h-103v103h-102v-103h-102v-102h-103v-103h103v-102h102v-102h102v102h103v102h102zM102 205v100h103v-100h-103zM102 1026v100h103v-100h-103zM205 307v101h102v-101h-102zM205 512v307h102v103h103v102h307v-102h102v-103h103v-307h-103v-102h-102
v-103h-307v103h-103v102h-102zM205 924v100h102v-100h-102zM819 307v101h103v-101h-103zM819 924v100h103v-100h-103zM922 205v100h102v-100h-102zM922 1026v100h102v-100h-102z" />
    <glyph glyph-name="yen" unicode="&#xa5;" horiz-adv-x="1433" 
d="M205 1229h-103v205h205v-103h103v-102h102v-205h102v-205h205v205h103v205h102v102h102v103h205v-205h-102v-103h-103v-204h-102v-103h-102v-205h-103v-102h205v-102h-205v-103h205v-102h-205v-205h-205v205h-204v102h204v103h-204v102h204v102h-102v205h-102v103h-103
v204h-102v103z" />
    <glyph glyph-name="brokenbar" unicode="&#xa6;" horiz-adv-x="409" 
d="M102 -307v614h205v-614h-205zM102 819v615h205v-615h-205z" />
    <glyph glyph-name="section" unicode="&#xa7;" horiz-adv-x="1024" 
d="M717 1126v103h-410v-205h512v-102h103v-410h-103v-102h103v-410h-103v-102h-614v102h-103v205h205v-103h410v205h-512v103h-103v409h103v103h-103v409h103v103h614v-103h103v-205h-205zM307 512h410v307h-410v-307z" />
    <glyph glyph-name="copyright" unicode="&#xa9;" horiz-adv-x="1638" 
d="M1024 819v103h-410v-512h410v102h205v-102h-103v-103h-102v-102h-410v102h-102v103h-102v512h102v102h102v102h410v-102h102v-102h103v-103h-205zM102 205v921h103v103h102v102h103v103h819v-103h102v-102h103v-103h102v-921h-102v-103h-103v-102h-102v-102h-819v102
h-103v102h-102v103h-103zM205 307h102v-102h103v-103h102v-102h614v102h103v103h102v102h103v717h-103v102h-102v103h-103v102h-614v-102h-102v-103h-103v-102h-102v-717z" />
    <glyph glyph-name="guillemotleft" unicode="&#xab;" horiz-adv-x="1331" 
d="M205 512h-103v102h103v103h102v102h103v103h102v102h205v-205h-103v-102h-102v-103h-102v-102h102v-102h102v-103h103v-205h-205v103h-102v102h-103v103h-102v102zM614 512v102h103v103h102v102h103v103h102v102h205v-205h-103v-102h-102v-103h-102v-102h102v-102h102
v-103h103v-205h-205v103h-102v102h-103v103h-102v102h-103z" />
    <glyph glyph-name="logicalnot" unicode="&#xac;" horiz-adv-x="1024" 
d="M102 614h820v-512h-205v308h-615v204z" />
    <glyph glyph-name="registered" unicode="&#xae;" horiz-adv-x="1638" 
d="M614 922v-205h410v205h-410zM102 205v921h103v103h102v102h103v103h819v-103h102v-102h103v-103h102v-921h-102v-103h-103v-102h-102v-102h-819v102h-103v102h-102v103h-103zM205 307h102v-102h103v921h-103v-102h-102v-717zM410 102h102v-102h614v102h103v103h-205v102
h-102v103h-103v102h-205v-307h-204v-103zM410 1126h614v-102h102v-102h103v-205h-103v-103h-102v-102h102v-102h103v-205h102v102h103v717h-103v102h-102v103h-103v102h-614v-102h-102v-103z" />
    <glyph glyph-name="degree" unicode="&#xb0;" horiz-adv-x="819" 
d="M307 1331v103h205v-103h102v-102h103v-205h-103v-102h-102v-103h-205v103h-102v102h-103v205h103v102h102zM307 1024h205v205h-205v-205z" />
    <glyph glyph-name="plusminus" unicode="&#xb1;" horiz-adv-x="1228" 
d="M512 307v307h-410v205h410v307h205v-307h409v-205h-409v-307h-205zM102 0v205h1024v-205h-1024z" />
    <glyph glyph-name="paragraph" unicode="&#xb6;" 
d="M819 -205v1639h205v-1639h-205zM102 922v307h103v102h102v103h410v-1639h-205v922h-205v102h-102v103h-103z" />
    <glyph glyph-name="periodcentered" unicode="&#xb7;" horiz-adv-x="409" 
d="M102 717h205v-205h-205v205z" />
    <glyph glyph-name="guillemotright" unicode="&#xbb;" horiz-adv-x="1331" 
d="M1126 512v-102h-102v-103h-102v-102h-103v-103h-205v205h103v103h102v102h103v102h-103v103h-102v102h-103v205h205v-102h103v-103h102v-102h102v-103h103v-102h-103zM102 102v205h103v103h102v102h103v102h-103v103h-102v102h-103v205h205v-102h103v-103h102v-102h102
v-103h103v-102h-103v-102h-102v-103h-102v-102h-103v-103h-205z" />
    <glyph glyph-name="questiondown" unicode="&#xbf;" 
d="M614 1434v-205h-204v205h204zM102 205v409h103v103h102v102h103v205h204v-307h-102v-103h-102v-102h-103v-205h103v-102h307v102h102v103h205v-205h-102v-103h-103v-102h-512v102h-102v103h-103z" />
    <glyph glyph-name="Agrave" unicode="&#xc0;" horiz-adv-x="1331" 
d="M102 410h103v307h102v205h103v204h102v205h102v103h103v-103h102v-205h103v-204h102v-205h102v-307h103v-410h-205v307h-512v103h-102v-103h-103v-307h-205v410zM410 512h512v205h-103v205h-102v204h-103v-204h-102v-205h-102v-205zM512 1741v205h205v-103h102v-205h-205
v103h-102z" />
    <glyph glyph-name="Aacute" unicode="&#xc1;" horiz-adv-x="1331" 
d="M102 410h103v307h102v205h103v204h102v205h102v103h103v-103h102v-205h103v-204h102v-205h102v-307h103v-410h-205v307h-512v103h-102v-103h-103v-307h-205v410zM410 512h512v205h-103v205h-102v204h-103v-204h-102v-205h-102v-205zM512 1638v205h102v103h205v-205h-102
v-103h-205z" />
    <glyph glyph-name="Acircumflex" unicode="&#xc2;" horiz-adv-x="1331" 
d="M102 410h103v307h102v205h103v204h102v205h102v103h103v-103h102v-205h103v-204h102v-205h102v-307h103v-410h-205v307h-512v103h-102v-103h-103v-307h-205v410zM410 512h512v205h-103v205h-102v204h-103v-204h-102v-205h-102v-205zM410 1638v103h102v102h102v103h103
v-103h102v-102h103v-103h-205v103h-103v-103h-204z" />
    <glyph glyph-name="Atilde" unicode="&#xc3;" horiz-adv-x="1331" 
d="M102 410h103v307h102v205h103v204h102v205h102v103h103v-103h102v-205h103v-204h102v-205h102v-307h103v-410h-205v307h-512v103h-102v-103h-103v-307h-205v410zM358 1741v102h103v-102h-103zM410 512h512v205h-103v205h-102v204h-103v-204h-102v-205h-102v-205z
M461 1843v103h205v-103h102v-102h102v-103h-204v103h-103v102h-102zM870 1741v102h103v-102h-103z" />
    <glyph glyph-name="Adieresis" unicode="&#xc4;" horiz-adv-x="1331" 
d="M102 410h103v307h102v205h103v204h102v205h102v103h103v-103h102v-205h103v-204h102v-205h102v-307h103v-410h-205v307h-512v103h-102v-103h-103v-307h-205v410zM358 1638v205h205v-205h-205zM410 512h512v205h-103v205h-102v204h-103v-204h-102v-205h-102v-205z
M768 1638v205h205v-205h-205z" />
    <glyph glyph-name="Aring" unicode="&#xc5;" horiz-adv-x="1331" 
d="M102 410h103v307h102v205h103v204h102v205h102v103h103v-103h102v-205h103v-204h102v-205h102v-307h103v-410h-205v307h-512v103h-102v-103h-103v-307h-205v410zM410 512h512v205h-103v205h-102v204h-103v-204h-102v-205h-102v-205zM512 1741v102h102v-102h-102z
M614 1638v103h103v-103h-103zM614 1843v103h103v-103h-103zM717 1741v102h102v-102h-102z" />
    <glyph glyph-name="AE" unicode="&#xc6;" horiz-adv-x="1740" 
d="M102 410h103v307h102v205h103v204h102v205h102v103h103v-103h100v-205h105v205h-103v103h819v-205h-614v-410h512v-102h-102v-103h-410v-409h614v-205h-819v307h-307v103h-102v-103h-103v-307h-205v410zM410 512h409v410h-102v204h-103v-204h-102v-205h-102v-205z" />
    <glyph glyph-name="Ccedilla" unicode="&#xc7;" horiz-adv-x="1331" 
d="M922 1229h-410v-103h-102v-102h-103v-614h103v-103h102v-102h410v102h102v205h102v102h103v-409h-103v-103h-102v-102h-358v-205h204v-102h103v-205h-103v-102h-102v-103h-307v103h-103v102h410v205h-307v307h-51v102h-205v205h-103v819h103v103h102v102h103v103h614
v-103h102v-102h103v-205h-205v102h-102v103z" />
    <glyph glyph-name="Egrave" unicode="&#xc8;" horiz-adv-x="1024" 
d="M205 1331h-103v103h820v-205h-615v-410h512v-102h-102v-103h-410v-409h615v-205h-820v1229h103v102zM358 1741v205h205v-103h103v-205h-205v103h-103z" />
    <glyph glyph-name="Eacute" unicode="&#xc9;" horiz-adv-x="1024" 
d="M205 1331h-103v103h820v-205h-615v-410h512v-102h-102v-103h-410v-409h615v-205h-820v1229h103v102zM358 1638v205h103v103h205v-205h-103v-103h-205z" />
    <glyph glyph-name="Ecircumflex" unicode="&#xca;" horiz-adv-x="1024" 
d="M205 1331h-103v103h820v-205h-615v-410h512v-102h-102v-103h-410v-409h615v-205h-820v1229h103v102zM256 1638v103h102v102h103v103h102v-103h103v-102h102v-103h-205v103h-102v-103h-205z" />
    <glyph glyph-name="Edieresis" unicode="&#xcb;" horiz-adv-x="1024" 
d="M205 1331h-103v103h820v-205h-615v-410h512v-102h-102v-103h-410v-409h615v-205h-820v1229h103v102zM205 1638v205h205v-205h-205zM614 1638v205h205v-205h-205z" />
    <glyph glyph-name="Igrave" unicode="&#xcc;" horiz-adv-x="409" 
d="M102 0v1229h103v102h-103v103h205v-1434h-205zM51 1741v205h205v-103h102v-205h-204v103h-103z" />
    <glyph glyph-name="Iacute" unicode="&#xcd;" horiz-adv-x="409" 
d="M102 0v1229h103v102h-103v103h205v-1434h-205zM51 1638v205h103v103h204v-205h-102v-103h-205z" />
    <glyph glyph-name="Icircumflex" unicode="&#xce;" horiz-adv-x="409" 
d="M102 0v1229h103v102h-103v103h205v-1434h-205zM-51 1638v103h102v102h103v103h102v-103h102v-102h103v-103h-205v103h-102v-103h-205z" />
    <glyph glyph-name="Idieresis" unicode="&#xcf;" horiz-adv-x="409" 
d="M102 0v1229h103v102h-103v103h205v-1434h-205zM-102 1638v205h204v-205h-204zM307 1638v205h205v-205h-205z" />
    <glyph glyph-name="Eth" unicode="&#xd0;" horiz-adv-x="1433" 
d="M307 1434h615v-103h102v-102h102v-103h103v-204h102v-512h-102v-205h-103v-103h-204v-102h-615v614h-205v205h205v615zM410 1229h102v-410h205v-205h-205v-409h307v102h205v205h102v410h-102v102h-102v102h-103v103h-305v102h-104v-102z" />
    <glyph glyph-name="Ntilde" unicode="&#xd1;" horiz-adv-x="1331" 
d="M102 0v1434h205v-308h103v-102h102v-102h102v-103h103v-102h102v-103h103v-102h102v922h205v-1434h-205v205h-102v102h-103v103h-102v102h-103v102h-102v103h-102v102h-103v-819h-205zM358 1741v102h103v-102h-103zM461 1843v103h205v-103h102v-102h102v-103h-204v103
h-103v102h-102zM870 1741v102h103v-102h-103z" />
    <glyph glyph-name="Ograve" unicode="&#xd2;" horiz-adv-x="1433" 
d="M922 1229h-410v-103h-102v-102h-103v-307h-102v-103h102v-204h103v-103h102v-102h410v102h102v205h102v205h103v102h-103v205h-102v102h-102v103zM102 307v819h103v103h102v102h103v103h614v-103h102v-102h103v-103h102v-716h-102v-205h-103v-103h-102v-102h-614v102
h-205v205h-103zM563 1741v205h205v-103h102v-205h-204v103h-103z" />
    <glyph glyph-name="Oacute" unicode="&#xd3;" horiz-adv-x="1433" 
d="M922 1229h-410v-103h-102v-102h-103v-307h-102v-103h102v-204h103v-103h102v-102h410v102h102v205h102v205h103v102h-103v205h-102v102h-102v103zM102 307v819h103v103h102v102h103v103h614v-103h102v-102h103v-103h102v-716h-102v-205h-103v-103h-102v-102h-614v102
h-205v205h-103zM563 1638v205h103v103h204v-205h-102v-103h-205z" />
    <glyph glyph-name="Ocircumflex" unicode="&#xd4;" horiz-adv-x="1433" 
d="M922 1229h-410v-103h-102v-102h-103v-307h-102v-103h102v-204h103v-103h102v-102h410v102h102v205h102v205h103v102h-103v205h-102v102h-102v103zM102 307v819h103v103h102v102h103v103h614v-103h102v-102h103v-103h102v-716h-102v-205h-103v-103h-102v-102h-614v102
h-205v205h-103zM461 1638v103h102v102h103v103h102v-103h102v-102h103v-103h-205v103h-102v-103h-205z" />
    <glyph glyph-name="Otilde" unicode="&#xd5;" horiz-adv-x="1433" 
d="M922 1229h-410v-103h-102v-102h-103v-307h-102v-103h102v-204h103v-103h102v-102h410v102h102v205h102v205h103v102h-103v205h-102v102h-102v103zM102 307v819h103v103h102v102h103v103h614v-103h102v-102h103v-103h102v-716h-102v-205h-103v-103h-102v-102h-614v102
h-205v205h-103zM410 1741v102h102v-102h-102zM512 1845v101h205v-103h102v-102h103v-103h-205v103h-103v104h-102zM922 1743v100h102v-100h-102z" />
    <glyph glyph-name="Odieresis" unicode="&#xd6;" horiz-adv-x="1433" 
d="M922 1229h-410v-103h-102v-102h-103v-307h-102v-103h102v-204h103v-103h102v-102h410v102h102v205h102v205h103v102h-103v205h-102v102h-102v103zM102 307v819h103v103h102v102h103v103h614v-103h102v-102h103v-103h102v-716h-102v-205h-103v-103h-102v-102h-614v102
h-205v205h-103zM410 1638v205h204v-205h-204zM819 1638v205h205v-205h-205z" />
    <glyph glyph-name="multiply" unicode="&#xd7;" 
d="M102 102v205h103v103h102v102h103v102h-103v103h-102v102h-103v205h205v-102h103v-103h102v-102h102v102h103v103h102v102h205v-205h-102v-102h-103v-103h-102v-102h102v-102h103v-103h102v-205h-205v103h-102v102h-103v103h-102v-103h-102v-102h-103v-103h-205z" />
    <glyph glyph-name="Oslash" unicode="&#xd8;" horiz-adv-x="1638" 
d="M512 1331v103h614v-103h103v103h102v102h205v-205h-102v-102h-103v-103h103v-716h-103v-205h-102v-103h-103v-102h-614v102h-102v-102h-103v-102h-205v204h103v103h102v102h-102v819h102v103h103v102h102zM307 614h103v-204h102v102h102v205h103v102h102v103h103v204h204
v103h-512v-103h-102v-102h-102v-307h-103v-103zM512 205h512v102h102v205h103v205h102v102h-102v205h-103v-102h-102v-205h-102v-103h-103v-102h-102v-205h-205v-102z" />
    <glyph glyph-name="Ugrave" unicode="&#xd9;" horiz-adv-x="1331" 
d="M1126 205v-103h-102v-102h-717v102h-102v103h-103v1229h205v-1127h103v-102h204v-103h103v103h205v102h102v1127h205v-1229h-103zM512 1741v205h205v-103h102v-205h-205v103h-102z" />
    <glyph glyph-name="Uacute" unicode="&#xda;" horiz-adv-x="1331" 
d="M1126 205v-103h-102v-102h-717v102h-102v103h-103v1229h205v-1127h103v-102h204v-103h103v103h205v102h102v1127h205v-1229h-103zM512 1638v205h102v103h205v-205h-102v-103h-205z" />
    <glyph glyph-name="Ucircumflex" unicode="&#xdb;" horiz-adv-x="1331" 
d="M1126 205v-103h-102v-102h-717v102h-102v103h-103v1229h205v-1127h103v-102h204v-103h103v103h205v102h102v1127h205v-1229h-103zM410 1638v103h102v102h102v103h103v-103h102v-102h103v-103h-205v103h-103v-103h-204z" />
    <glyph glyph-name="Udieresis" unicode="&#xdc;" horiz-adv-x="1331" 
d="M1126 205v-103h-102v-102h-717v102h-102v103h-103v1229h205v-1127h103v-102h204v-103h103v103h205v102h102v1127h205v-1229h-103zM358 1638v205h205v-205h-205zM768 1638v205h205v-205h-205z" />
    <glyph glyph-name="Yacute" unicode="&#xdd;" horiz-adv-x="1433" 
d="M205 1229h-103v205h205v-103h103v-102h102v-205h102v-205h205v205h103v205h102v102h102v103h205v-205h-102v-103h-103v-204h-102v-103h-102v-205h-103v-614h-205v614h-102v205h-102v103h-103v204h-102v103zM563 1638v205h103v103h204v-205h-102v-103h-205z" />
    <glyph glyph-name="Thorn" unicode="&#xde;" 
d="M102 0v1434h205v-205h307v-103h205v-102h103v-102h102v-512h-102v-103h-205v-102h-410v-205h-205zM205 819h102v-409h410v102h102v307h-102v103h-103v102h-307v-102h-102v-103z" />
    <glyph glyph-name="germandbls" unicode="&#xdf;" horiz-adv-x="1228" 
d="M922 512h-103v102h-307v205h205v103h102v102h103v102h-103v103h-409v-103h-103v-1126h-205v1229h103v102h102v103h615v-103h102v-102h102v-307h-102v-103h-102v-102h102v-103h102v-409h-102v-103h-102v-102h-410v205h307v102h103v205z" />
    <glyph glyph-name="agrave" unicode="&#xe0;" horiz-adv-x="1024" 
d="M717 0v102h-103v-102h-409v102h-103v410h205v102h307v-102h103v205h-103v102h-307v-102h-205v205h205v102h410v-102h102v-205h103v-717h-205zM307 205h307v102h103v103h-410v-205zM358 1331v205h205v-102h103v-205h-205v102h-103z" />
    <glyph glyph-name="aacute" unicode="&#xe1;" horiz-adv-x="1024" 
d="M717 0v102h-103v-102h-409v102h-103v410h205v102h307v-102h103v205h-103v102h-307v-102h-205v205h205v102h410v-102h102v-205h103v-717h-205zM307 205h307v102h103v103h-410v-205zM358 1229v205h103v102h205v-205h-103v-102h-205z" />
    <glyph glyph-name="acircumflex" unicode="&#xe2;" horiz-adv-x="1024" 
d="M717 0v102h-103v-102h-409v102h-103v410h205v102h307v-102h103v205h-103v102h-307v-102h-205v205h205v102h410v-102h102v-205h103v-717h-205zM256 1229v102h102v103h103v102h102v-102h103v-103h102v-102h-205v102h-102v-102h-205zM307 205h307v102h103v103h-410v-205z
" />
    <glyph glyph-name="atilde" unicode="&#xe3;" horiz-adv-x="1024" 
d="M717 0v102h-103v-102h-409v102h-103v410h205v102h307v-102h103v205h-103v102h-307v-102h-205v205h205v102h410v-102h102v-205h103v-717h-205zM205 1331v103h102v-103h-102zM307 205h307v102h103v103h-410v-205zM307 1434v102h205v-102h102v-103h103v-102h-205v102h-102
v103h-103zM717 1331v103h102v-103h-102z" />
    <glyph glyph-name="adieresis" unicode="&#xe4;" horiz-adv-x="1024" 
d="M717 0v102h-103v-102h-409v102h-103v410h205v102h307v-102h103v205h-103v102h-307v-102h-205v205h205v102h410v-102h102v-205h103v-717h-205zM205 1229v205h205v-205h-205zM307 205h307v102h103v103h-410v-205zM614 1229v205h205v-205h-205z" />
    <glyph glyph-name="aring" unicode="&#xe5;" horiz-adv-x="1024" 
d="M717 0v102h-103v-102h-409v102h-103v410h205v102h307v-102h103v205h-103v102h-307v-102h-205v205h205v102h410v-102h102v-205h103v-717h-205zM307 205h307v102h103v103h-410v-205zM358 1331v103h103v-103h-103zM461 1229v102h102v-102h-102zM461 1434v102h102v-102h-102z
M563 1331v103h103v-103h-103z" />
    <glyph glyph-name="ae" unicode="&#xe6;" horiz-adv-x="1638" 
d="M717 0v102h-103v-102h-409v102h-103v410h205v102h410v103h-103v102h-307v-102h-205v205h205v102h410v-102h205v102h409v-102h103v-103h102v-307h-102v-102h-512v-205h409v102h205v-102h-102v-103h-103v-102h-614zM307 205h307v102h103v103h-410v-205zM922 512h102v102
h410v103h-103v102h-409v-307z" />
    <glyph glyph-name="ccedilla" unicode="&#xe7;" 
d="M205 410h-103v204h103v205h102v103h103v102h409v-102h103v-103h102v-102h-205v102h-409v-205h-103v-204h103v-205h409v102h205v-102h-102v-103h-103v-102h-256v-205h205v-102h102v-205h-102v-102h-102v-103h-308v103h-102v102h410v205h-308v307h52v102h-103v103h-102v205
z" />
    <glyph glyph-name="egrave" unicode="&#xe8;" 
d="M205 410h-103v204h103v205h102v103h103v102h409v-102h103v-103h102v-307h-102v-102h-512v-205h409v102h205v-102h-102v-103h-103v-102h-409v102h-103v103h-102v205zM410 512h102v102h410v103h-103v102h-409v-307zM410 1331v205h204v-102h103v-205h-205v102h-102z" />
    <glyph glyph-name="eacute" unicode="&#xe9;" 
d="M205 410h-103v204h103v205h102v103h103v102h409v-102h103v-103h102v-307h-102v-102h-512v-205h409v102h205v-102h-102v-103h-103v-102h-409v102h-103v103h-102v205zM410 512h102v102h410v103h-103v102h-409v-307zM410 1229v205h102v102h205v-205h-103v-102h-204z" />
    <glyph glyph-name="ecircumflex" unicode="&#xea;" 
d="M205 410h-103v204h103v205h102v103h103v102h409v-102h103v-103h102v-307h-102v-102h-512v-205h409v102h205v-102h-102v-103h-103v-102h-409v102h-103v103h-102v205zM307 1229v102h103v103h102v102h102v-102h103v-103h102v-102h-205v102h-102v-102h-205zM410 512h102v102
h410v103h-103v102h-409v-307z" />
    <glyph glyph-name="edieresis" unicode="&#xeb;" 
d="M205 410h-103v204h103v205h102v103h103v102h409v-102h103v-103h102v-307h-102v-102h-512v-205h409v102h205v-102h-102v-103h-103v-102h-409v102h-103v103h-102v205zM256 1229v205h205v-205h-205zM410 512h102v102h410v103h-103v102h-409v-307zM666 1229v205h204v-205
h-204z" />
    <glyph glyph-name="igrave" unicode="&#xec;" horiz-adv-x="409" 
d="M102 1024h205v-1024h-205v1024zM51 1331v205h205v-102h102v-205h-204v102h-103z" />
    <glyph glyph-name="iacute" unicode="&#xed;" horiz-adv-x="409" 
d="M102 1024h205v-1024h-205v1024zM51 1229v205h103v102h204v-205h-102v-102h-205z" />
    <glyph glyph-name="icircumflex" unicode="&#xee;" horiz-adv-x="409" 
d="M102 1024h205v-1024h-205v1024zM-51 1229v102h102v103h103v102h102v-102h102v-103h103v-102h-205v102h-102v-102h-205z" />
    <glyph glyph-name="idieresis" unicode="&#xef;" horiz-adv-x="409" 
d="M102 1024h205v-1024h-205v1024zM-102 1229v205h204v-205h-204zM307 1229v205h205v-205h-205z" />
    <glyph glyph-name="eth" unicode="&#xf0;" horiz-adv-x="1228" 
d="M1024 205h-102v-103h-103v-102h-512v102h-102v103h-103v512h103v102h102v103h512v102h-205v102h103v103h-512v205h614v-103h103v103h204v-103h-102v-102h-102v-103h102v-921zM307 307h103v-102h307v102h102v307h-102v103h-307v-103h-103v-307z" />
    <glyph glyph-name="ntilde" unicode="&#xf1;" 
d="M102 1024h205v-102h103v102h409v-102h103v-103h102v-819h-205v819h-409v-102h-103v-717h-205v1024zM256 1331v103h102v-103h-102zM358 1434v102h205v-102h103v-103h102v-102h-205v102h-102v103h-103zM768 1331v103h102v-103h-102z" />
    <glyph glyph-name="ograve" unicode="&#xf2;" horiz-adv-x="1228" 
d="M205 410h-103v204h103v205h102v103h103v102h409v-102h103v-103h102v-205h102v-204h-102v-205h-102v-103h-103v-102h-409v102h-103v103h-102v205zM307 410h103v-205h409v205h103v204h-103v205h-409v-205h-103v-204zM461 1331v205h205v-102h102v-205h-205v102h-102z" />
    <glyph glyph-name="oacute" unicode="&#xf3;" horiz-adv-x="1228" 
d="M205 410h-103v204h103v205h102v103h103v102h409v-102h103v-103h102v-205h102v-204h-102v-205h-102v-103h-103v-102h-409v102h-103v103h-102v205zM307 410h103v-205h409v205h103v204h-103v205h-409v-205h-103v-204zM461 1229v205h102v102h205v-205h-102v-102h-205z" />
    <glyph glyph-name="ocircumflex" unicode="&#xf4;" horiz-adv-x="1228" 
d="M205 410h-103v204h103v205h102v103h103v102h409v-102h103v-103h102v-205h102v-204h-102v-205h-102v-103h-103v-102h-409v102h-103v103h-102v205zM307 410h103v-205h409v205h103v204h-103v205h-409v-205h-103v-204zM358 1229v102h103v103h102v102h103v-102h102v-103h102
v-102h-204v102h-103v-102h-205z" />
    <glyph glyph-name="otilde" unicode="&#xf5;" horiz-adv-x="1228" 
d="M205 410h-103v204h103v205h102v103h103v102h409v-102h103v-103h102v-205h102v-204h-102v-205h-102v-103h-103v-102h-409v102h-103v103h-102v205zM307 410h103v-205h409v205h103v204h-103v205h-409v-205h-103v-204zM307 1331v103h103v-103h-103zM410 1434v102h204v-102
h103v-103h102v-102h-205v102h-102v103h-102zM819 1331v103h103v-103h-103z" />
    <glyph glyph-name="odieresis" unicode="&#xf6;" horiz-adv-x="1228" 
d="M205 410h-103v204h103v205h102v103h103v102h409v-102h103v-103h102v-205h102v-204h-102v-205h-102v-103h-103v-102h-409v102h-103v103h-102v205zM307 410h103v-205h409v205h103v204h-103v205h-409v-205h-103v-204zM307 1229v205h205v-205h-205zM717 1229v205h205v-205
h-205z" />
    <glyph glyph-name="divide" unicode="&#xf7;" horiz-adv-x="1228" 
d="M102 717h1024v-205h-1024v205zM512 102v205h205v-205h-205zM512 922v204h205v-204h-205z" />
    <glyph glyph-name="oslash" unicode="&#xf8;" horiz-adv-x="1228" 
d="M205 410h-103v204h103v205h102v103h103v102h409v-102h103v-103h102v101h102v-103h-102v-203h102v-204h-102v-205h-102v-103h-103v-102h-409v102h-103v-100h-102v102h102v101h-102v205zM307 307h103v103h102v102h102v102h103v103h102v102h-409v-205h-103v-307zM512 205
h307v205h103v204h-103v-102h-102v-102h-103v-103h-102v-102z" />
    <glyph glyph-name="ugrave" unicode="&#xf9;" 
d="M1024 0h-205v102h-102v-102h-410v102h-102v103h-103v819h205v-819h410v102h102v717h205v-1024zM410 1331v205h204v-102h103v-205h-205v102h-102z" />
    <glyph glyph-name="uacute" unicode="&#xfa;" 
d="M1024 0h-205v102h-102v-102h-410v102h-102v103h-103v819h205v-819h410v102h102v717h205v-1024zM410 1229v205h102v102h205v-205h-103v-102h-204z" />
    <glyph glyph-name="ucircumflex" unicode="&#xfb;" 
d="M1024 0h-205v102h-102v-102h-410v102h-102v103h-103v819h205v-819h410v102h102v717h205v-1024zM307 1229v102h103v103h102v102h102v-102h103v-103h102v-102h-205v102h-102v-102h-205z" />
    <glyph glyph-name="udieresis" unicode="&#xfc;" 
d="M1024 0h-205v102h-102v-102h-410v102h-102v103h-103v819h205v-819h410v102h102v717h205v-1024zM256 1229v205h205v-205h-205zM666 1229v205h204v-205h-204z" />
    <glyph glyph-name="yacute" unicode="&#xfd;" 
d="M1024 -205h-102v-102h-103v-103h-512v103h-102v102h-103v103h308v-103h307v103h102v204h-102v-102h-410v102h-102v103h-103v819h205v-717h103v-102h307v102h102v717h205v-1229zM410 1229v205h102v102h205v-205h-103v-102h-204z" />
    <glyph glyph-name="thorn" unicode="&#xfe;" 
d="M102 1434h205v-512h103v102h409v-102h103v-103h102v-614h-102v-103h-103v-102h-409v102h-103v-409h-205v1741zM307 205h512v614h-409v-102h-103v-512z" />
    <glyph glyph-name="ydieresis" unicode="&#xff;" 
d="M1024 -205h-102v-102h-103v-103h-512v103h-102v102h-103v103h308v-103h307v103h102v204h-102v-102h-410v102h-102v103h-103v819h205v-717h103v-102h307v102h102v717h205v-1229zM256 1229v205h205v-205h-205zM666 1229v205h204v-205h-204z" />
    <glyph glyph-name="Amacron" unicode="&#x100;" horiz-adv-x="1331" 
d="M102 410h103v307h102v205h103v204h102v205h102v103h103v-103h102v-205h103v-204h102v-205h102v-307h103v-410h-205v307h-512v103h-102v-103h-103v-307h-205v410zM410 512h512v205h-103v205h-102v204h-103v-204h-102v-205h-102v-205zM410 1741v102h512v-102h-512z" />
    <glyph glyph-name="amacron" unicode="&#x101;" horiz-adv-x="1024" 
d="M717 0v102h-103v-102h-409v102h-103v410h205v102h307v-102h103v205h-103v102h-307v-102h-205v205h205v102h410v-102h102v-205h103v-717h-205zM256 1331v103h512v-103h-512zM307 205h307v102h103v103h-410v-205z" />
    <glyph glyph-name="Abreve" unicode="&#x102;" horiz-adv-x="1331" 
d="M102 410h103v307h102v205h103v204h102v205h102v103h103v-103h102v-205h103v-204h102v-205h102v-307h103v-410h-205v307h-512v103h-102v-103h-103v-307h-205v410zM256 1843v103h205v-103h102v-102h205v102h102v103h205v-103h-102v-102h-103v-103h-409v103h-103v102h-102z
M410 512h512v205h-103v205h-102v204h-103v-204h-102v-205h-102v-205z" />
    <glyph glyph-name="abreve" unicode="&#x103;" horiz-adv-x="1024" 
d="M717 0v102h-103v-102h-409v102h-103v410h205v102h307v-102h103v205h-103v102h-307v-102h-205v205h205v102h410v-102h102v-205h103v-717h-205zM102 1434v102h205v-102h103v-103h204v103h103v102h205v-102h-103v-103h-102v-102h-410v102h-102v103h-103zM307 205h307v102
h103v103h-410v-205z" />
    <glyph glyph-name="Aogonek" unicode="&#x104;" horiz-adv-x="1331" 
d="M102 410h103v307h102v205h103v204h102v205h102v103h103v-103h102v-205h103v-204h102v-205h102v-307h103v-410h-133v-82h-103v-102h-102v-103h307v-102h-410v307h103v102h133v287h-512v103h-102v-103h-103v-307h-205v410zM410 512h512v205h-103v205h-102v204h-103v-204
h-102v-205h-102v-205z" />
    <glyph glyph-name="aogonek" unicode="&#x105;" horiz-adv-x="1024" 
d="M819 0v-82h-102v-102h-103v-103h308v-102h-410v307h102v82h-409v102h-103v410h205v102h307v-102h103v205h-103v102h-307v-102h-205v205h205v102h410v-102h102v-205h103v-717h-103zM307 205h307v102h103v103h-410v-205zM614 20h103v82h-103v-82z" />
    <glyph glyph-name="Cacute" unicode="&#x106;" horiz-adv-x="1331" 
d="M922 1229h-410v-103h-102v-102h-103v-614h103v-103h102v-102h410v102h102v205h102v102h103v-409h-103v-103h-102v-102h-614v102h-205v205h-103v819h103v103h102v102h103v103h614v-103h102v-102h103v-205h-205v102h-102v103zM512 1638v205h102v103h205v-205h-102v-103
h-205z" />
    <glyph glyph-name="cacute" unicode="&#x107;" 
d="M205 410h-103v204h103v205h102v103h103v102h409v-102h103v-103h102v-102h-205v102h-409v-205h-103v-204h103v-205h409v102h205v-102h-102v-103h-103v-102h-409v102h-103v103h-102v205zM410 1229v205h102v102h205v-205h-103v-102h-204z" />
    <glyph glyph-name="Cdotaccent" unicode="&#x10a;" horiz-adv-x="1331" 
d="M922 1229h-410v-103h-102v-102h-103v-614h103v-103h102v-102h410v102h102v205h102v102h103v-409h-103v-103h-102v-102h-614v102h-205v205h-103v819h103v103h102v102h103v103h614v-103h102v-102h103v-205h-205v102h-102v103zM563 1638v205h205v-205h-205z" />
    <glyph glyph-name="cdotaccent" unicode="&#x10b;" 
d="M205 410h-103v204h103v205h102v103h103v102h409v-102h103v-103h102v-102h-205v102h-409v-205h-103v-204h103v-205h409v102h205v-102h-102v-103h-103v-102h-409v102h-103v103h-102v205zM461 1229v205h205v-205h-205z" />
    <glyph glyph-name="Ccaron" unicode="&#x10c;" horiz-adv-x="1331" 
d="M922 1229h-410v-103h-102v-102h-103v-614h103v-103h102v-102h410v102h102v205h102v102h103v-409h-103v-103h-102v-102h-614v102h-205v205h-103v819h103v103h102v102h103v103h614v-103h102v-102h103v-205h-205v102h-102v103zM410 1843v103h204v-103h103v103h205v-103h-103
v-102h-102v-103h-103v103h-102v102h-102z" />
    <glyph glyph-name="ccaron" unicode="&#x10d;" 
d="M205 410h-103v204h103v205h102v103h103v102h409v-102h103v-103h102v-102h-205v102h-409v-205h-103v-204h103v-205h409v102h205v-102h-102v-103h-103v-102h-409v102h-103v103h-102v205zM307 1434v102h205v-102h102v102h205v-102h-102v-103h-103v-102h-102v102h-102v103
h-103z" />
    <glyph glyph-name="Dcaron" unicode="&#x10e;" horiz-adv-x="1228" 
d="M102 1434h615v-103h102v-102h103v-103h102v-204h102v-512h-102v-205h-102v-103h-205v-102h-615v1434zM205 1229h102v-1024h307v102h205v205h103v410h-103v102h-102v102h-103v103h-305v102h-104v-102zM358 1843v103h205v-103h103v103h204v-103h-102v-102h-102v-103h-103
v103h-102v102h-103z" />
    <glyph glyph-name="dcaron" unicode="&#x10f;" 
d="M1024 0h-205v102h-102v-102h-410v102h-102v103h-103v614h103v103h102v102h410v-102h102v614h205v-1536zM307 205h410v102h102v512h-512v-614zM1126 1229v205h205v-308h-102v103h-103z" />
    <glyph glyph-name="Dcroat" unicode="&#x110;" horiz-adv-x="1433" 
d="M307 1434h615v-103h102v-102h102v-103h103v-204h102v-512h-102v-205h-103v-103h-204v-102h-615v614h-205v205h205v615zM410 1229h102v-410h205v-205h-205v-409h307v102h205v205h102v410h-102v102h-102v102h-103v103h-305v102h-104v-102z" />
    <glyph glyph-name="dcroat" unicode="&#x111;" horiz-adv-x="1228" 
d="M1024 0h-205v102h-102v-102h-410v102h-102v103h-103v614h103v103h102v102h410v-102h102v204h-205v205h205v103h205v-103h102v-205h-102v-1126zM307 205h410v102h102v512h-512v-614z" />
    <glyph glyph-name="Emacron" unicode="&#x112;" horiz-adv-x="1024" 
d="M205 1331h-103v103h820v-205h-615v-410h512v-102h-102v-103h-410v-409h615v-205h-820v1229h103v102zM256 1741v102h512v-102h-512z" />
    <glyph glyph-name="emacron" unicode="&#x113;" 
d="M205 410h-103v204h103v205h102v103h103v102h409v-102h103v-103h102v-307h-102v-102h-512v-205h409v102h205v-102h-102v-103h-103v-102h-409v102h-103v103h-102v205zM307 1331v103h512v-103h-512zM410 512h102v102h410v103h-103v102h-409v-307z" />
    <glyph glyph-name="Edotaccent" unicode="&#x116;" horiz-adv-x="1024" 
d="M205 1331h-103v103h820v-205h-615v-410h512v-102h-102v-103h-410v-409h615v-205h-820v1229h103v102zM410 1638v205h204v-205h-204z" />
    <glyph glyph-name="edotaccent" unicode="&#x117;" 
d="M205 410h-103v204h103v205h102v103h103v102h409v-102h103v-103h102v-307h-102v-102h-512v-205h409v102h205v-102h-102v-103h-103v-102h-409v102h-103v103h-102v205zM410 512h102v102h410v103h-103v102h-409v-307zM461 1229v205h205v-205h-205z" />
    <glyph glyph-name="Eogonek" unicode="&#x118;" horiz-adv-x="1024" 
d="M205 1331h-103v103h820v-205h-615v-410h512v-102h-102v-103h-410v-409h615v-205h-103v-82h-102v-102h-103v-103h308v-102h-410v307h102v82h-512v1229h103v102z" />
    <glyph glyph-name="eogonek" unicode="&#x119;" 
d="M205 410h-103v204h103v205h102v103h103v102h409v-102h103v-103h102v-307h-102v-102h-512v-205h409v102h205v-102h-102v-103h-103v-102h-55v-82h-102v-102h-103v-103h307v-102h-409v307h102v82h-149v102h-103v103h-102v205zM410 512h102v102h410v103h-103v102h-409v-307z
" />
    <glyph glyph-name="Ecaron" unicode="&#x11a;" horiz-adv-x="1024" 
d="M205 1331h-103v103h820v-205h-615v-410h512v-102h-102v-103h-410v-409h615v-205h-820v1229h103v102zM256 1843v103h205v-103h102v103h205v-103h-102v-102h-103v-103h-102v103h-103v102h-102z" />
    <glyph glyph-name="ecaron" unicode="&#x11b;" 
d="M205 410h-103v204h103v205h102v103h103v102h409v-102h103v-103h102v-307h-102v-102h-512v-205h409v102h205v-102h-102v-103h-103v-102h-409v102h-103v103h-102v205zM307 1434v102h205v-102h102v102h205v-102h-102v-103h-103v-102h-102v102h-102v103h-103zM410 512h102
v102h410v103h-103v102h-409v-307z" />
    <glyph glyph-name="Gbreve" unicode="&#x11e;" horiz-adv-x="1331" 
d="M922 1229h-410v-103h-102v-102h-103v-614h103v-103h102v-102h410v102h102v205h-410v102h-102v103h717v-512h-103v-103h-102v-102h-614v102h-205v205h-103v819h103v103h102v102h103v103h614v-103h102v-102h103v-205h-205v102h-102v103zM256 1843v103h205v-103h102v-102
h205v102h102v103h205v-103h-102v-102h-103v-103h-409v103h-103v102h-102z" />
    <glyph glyph-name="gbreve" unicode="&#x11f;" 
d="M819 922v102h205v-1229h-102v-102h-103v-103h-512v103h-102v102h-103v103h308v-103h307v103h102v204h-102v-102h-410v102h-102v103h-103v614h103v103h102v102h410v-102h102zM154 1434v102h204v-102h103v-103h205v103h102v102h205v-102h-103v-103h-102v-102h-410v102h-102
v103h-102zM307 307h103v-102h307v102h102v410h-102v102h-307v-102h-103v-410z" />
    <glyph glyph-name="Gdotaccent" unicode="&#x120;" horiz-adv-x="1331" 
d="M922 1229h-410v-103h-102v-102h-103v-614h103v-103h102v-102h410v102h102v205h-410v102h-102v103h717v-512h-103v-103h-102v-102h-614v102h-205v205h-103v819h103v103h102v102h103v103h614v-103h102v-102h103v-205h-205v102h-102v103zM563 1638v205h205v-205h-205z" />
    <glyph glyph-name="gdotaccent" unicode="&#x121;" 
d="M819 922v102h205v-1229h-102v-102h-103v-103h-512v103h-102v102h-103v103h308v-103h307v103h102v204h-102v-102h-410v102h-102v103h-103v614h103v103h102v102h410v-102h102zM307 307h103v-102h307v102h102v410h-102v102h-307v-102h-103v-410zM461 1229v205h205v-205h-205
z" />
    <glyph glyph-name="uni0122" unicode="&#x122;" horiz-adv-x="1331" 
d="M922 1229h-410v-103h-102v-102h-103v-614h103v-103h102v-102h410v102h102v205h-410v102h-102v103h717v-512h-103v-103h-102v-102h-614v102h-205v205h-103v819h103v103h102v102h103v103h614v-103h102v-102h103v-205h-205v102h-102v103zM512 -410v205h102v103h205v-205
h-102v-103h-205z" />
    <glyph glyph-name="uni0123" unicode="&#x123;" 
d="M819 922v102h205v-1229h-102v-102h-103v-103h-512v103h-102v102h-103v103h308v-103h307v103h102v204h-102v-102h-410v102h-102v103h-103v614h103v103h102v102h410v-102h102zM307 307h103v-102h307v102h102v410h-102v102h-307v-102h-103v-410zM461 1331v410h205v-103h-103
v-102h103v-205h-205z" />
    <glyph glyph-name="Hbar" unicode="&#x126;" horiz-adv-x="1433" 
d="M205 0v922h-103v204h103v308h205v-308h614v308h205v-308h102v-204h-102v-922h-205v512h-512v102h-102v-614h-205zM410 717h614v205h-614v-205z" />
    <glyph glyph-name="hbar" unicode="&#x127;" 
d="M102 1229h-102v205h102v102h205v-102h205v-205h-205v-307h103v102h409v-102h103v-103h102v-819h-205v819h-409v-102h-103v-717h-205v1229z" />
    <glyph glyph-name="Itilde" unicode="&#x128;" horiz-adv-x="409" 
d="M102 0v1229h103v102h-103v103h205v-1434h-205zM-102 1741v102h102v-102h-102zM0 1843v103h205v-103h102v-102h103v-103h-205v103h-103v102h-102zM410 1741v102h102v-102h-102z" />
    <glyph glyph-name="itilde" unicode="&#x129;" horiz-adv-x="409" 
d="M102 1024h205v-1024h-205v1024zM-102 1331v103h102v-103h-102zM0 1434v102h205v-102h102v-103h103v-102h-205v102h-103v103h-102zM410 1331v103h102v-103h-102z" />
    <glyph glyph-name="Imacron" unicode="&#x12a;" horiz-adv-x="409" 
d="M102 0v1229h103v102h-103v103h205v-1434h-205zM-51 1741v102h512v-102h-512z" />
    <glyph glyph-name="imacron" unicode="&#x12b;" horiz-adv-x="409" 
d="M102 1024h205v-1024h-205v1024zM-51 1331v103h512v-103h-512z" />
    <glyph glyph-name="Iogonek" unicode="&#x12e;" horiz-adv-x="409" 
d="M102 1229h103v102h-103v103h205v-1434h-41v-82h-102v-102h-103v-103h308v-102h-410v307h102v102h41v1209z" />
    <glyph glyph-name="iogonek" unicode="&#x12f;" horiz-adv-x="409" 
d="M102 1024h205v-1024h-41v-82h-102v-102h-103v-103h308v-102h-410v307h102v102h41v1004zM102 1229v205h205v-205h-205z" />
    <glyph glyph-name="Idotaccent" unicode="&#x130;" horiz-adv-x="409" 
d="M102 0v1229h103v102h-103v103h205v-1434h-205zM102 1638v205h205v-205h-205z" />
    <glyph glyph-name="dotlessi" unicode="&#x131;" horiz-adv-x="409" 
d="M102 1024h205v-1024h-205v1024z" />
    <glyph glyph-name="IJ" unicode="&#x132;" horiz-adv-x="1413" 
d="M102 0v1229h103v102h-103v103h205v-1434h-205zM492 205v205h102v102h102v-205h103v-102h205v102h102v1127h205v-1229h-103v-103h-102v-102h-410v102h-102v103h-102z" />
    <glyph glyph-name="ij" unicode="&#x133;" horiz-adv-x="1024" 
d="M102 1024h205v-1024h-205v1024zM102 1229v205h205v-205h-205zM410 -307v205h204v102h103v1024h205v-1126h-103v-103h-102v-102h-307zM717 1229v205h205v-205h-205z" />
    <glyph glyph-name="uni0136" unicode="&#x136;" 
d="M102 1434h205v-717h103v102h102v103h102v102h103v205h102v205h205v-308h-102v-102h-103v-205h-102v-102h-103v-103h103v-102h102v-102h103v-205h102v-205h-205v205h-102v102h-103v103h-102v102h-205v-512h-205v1434zM410 -410v205h102v103h205v-205h-103v-103h-204z" />
    <glyph glyph-name="uni0137" unicode="&#x137;" horiz-adv-x="1024" 
d="M102 1536h205v-819h103v102h102v103h102v102h308v-102h-103v-103h-102v-102h-103v-103h-102v-102h102v-102h103v-103h102v-102h103v-205h-205v102h-103v103h-102v102h-102v103h-103v-410h-205v1536zM358 -410v205h103v103h205v-205h-103v-103h-205z" />
    <glyph glyph-name="Lacute" unicode="&#x139;" horiz-adv-x="1024" 
d="M102 1434h205v-1229h615v-103h-103v-102h-614v102h-103v1332zM358 1638v205h103v103h205v-205h-103v-103h-205z" />
    <glyph glyph-name="lacute" unicode="&#x13a;" horiz-adv-x="409" 
d="M102 1536h205v-1024h-102v-102h102v-410h-205v1536zM51 1843v205h103v102h204v-204h-102v-103h-205z" />
    <glyph glyph-name="uni013B" unicode="&#x13b;" horiz-adv-x="1024" 
d="M102 1434h205v-1229h615v-103h-103v-102h-614v102h-103v1332zM358 -410v205h103v103h205v-205h-103v-103h-205z" />
    <glyph glyph-name="uni013C" unicode="&#x13c;" horiz-adv-x="409" 
d="M102 1536h205v-1024h-102v-102h102v-410h-205v1536zM51 -410v205h103v103h204v-205h-102v-103h-205z" />
    <glyph glyph-name="Lcaron" unicode="&#x13d;" horiz-adv-x="1024" 
d="M102 1434h205v-1229h615v-103h-103v-102h-614v102h-103v1332zM1024 1024v205h205v-307h-103v102h-102z" />
    <glyph glyph-name="lcaron" unicode="&#x13e;" horiz-adv-x="409" 
d="M102 1536h205v-1024h-102v-102h102v-410h-205v1536zM410 1229v205h204v-308h-102v103h-102z" />
    <glyph glyph-name="Lslash" unicode="&#x141;" horiz-adv-x="1228" 
d="M307 1434h205v-410h102v102h103v-204h-103v-103h-102v-614h614v-103h-102v-102h-614v102h-103v512h-102v-102h-103v205h103v102h102v615z" />
    <glyph glyph-name="lslash" unicode="&#x142;" horiz-adv-x="819" 
d="M307 1536h205v-512h102v102h103v-204h-103v-103h-102v-307h-102v-102h102v-410h-205v614h-102v-102h-103v205h103v102h102v717z" />
    <glyph glyph-name="Nacute" unicode="&#x143;" horiz-adv-x="1331" 
d="M102 0v1434h205v-308h103v-102h102v-102h102v-103h103v-102h102v-103h103v-102h102v922h205v-1434h-205v205h-102v102h-103v103h-102v102h-103v102h-102v103h-102v102h-103v-819h-205zM512 1638v205h102v103h205v-205h-102v-103h-205z" />
    <glyph glyph-name="nacute" unicode="&#x144;" 
d="M102 1024h205v-102h103v102h409v-102h103v-103h102v-819h-205v819h-409v-102h-103v-717h-205v1024zM410 1229v205h102v102h205v-205h-103v-102h-204z" />
    <glyph glyph-name="uni0145" unicode="&#x145;" horiz-adv-x="1331" 
d="M102 0v1434h205v-308h103v-102h102v-102h102v-103h103v-102h102v-103h103v-102h102v922h205v-1434h-205v205h-102v102h-103v103h-102v102h-103v102h-102v103h-102v102h-103v-819h-205zM512 -410v205h102v103h205v-205h-102v-103h-205z" />
    <glyph glyph-name="uni0146" unicode="&#x146;" 
d="M102 1024h205v-102h103v102h409v-102h103v-103h102v-819h-205v819h-409v-102h-103v-717h-205v1024zM410 -410v205h102v103h205v-205h-103v-103h-204z" />
    <glyph glyph-name="Ncaron" unicode="&#x147;" horiz-adv-x="1331" 
d="M102 0v1434h205v-308h103v-102h102v-102h102v-103h103v-102h102v-103h103v-102h102v922h205v-1434h-205v205h-102v102h-103v103h-102v102h-103v102h-102v103h-102v102h-103v-819h-205zM410 1843v103h204v-103h103v103h205v-103h-103v-102h-102v-103h-103v103h-102v102
h-102z" />
    <glyph glyph-name="ncaron" unicode="&#x148;" 
d="M102 1024h205v-102h103v102h409v-102h103v-103h102v-819h-205v819h-409v-102h-103v-717h-205v1024zM307 1434v102h205v-102h102v102h205v-102h-102v-103h-103v-102h-102v102h-102v103h-103z" />
    <glyph glyph-name="Omacron" unicode="&#x14c;" horiz-adv-x="1433" 
d="M922 1229h-410v-103h-102v-102h-103v-307h-102v-103h102v-204h103v-103h102v-102h410v102h102v205h102v205h103v102h-103v205h-102v102h-102v103zM102 307v819h103v103h102v102h103v103h614v-103h102v-102h103v-103h102v-716h-102v-205h-103v-103h-102v-102h-614v102
h-205v205h-103zM461 1741v102h512v-102h-512z" />
    <glyph glyph-name="omacron" unicode="&#x14d;" horiz-adv-x="1228" 
d="M205 410h-103v204h103v205h102v103h103v102h409v-102h103v-103h102v-205h102v-204h-102v-205h-102v-103h-103v-102h-409v102h-103v103h-102v205zM307 410h103v-205h409v205h103v204h-103v205h-409v-205h-103v-204zM358 1331v103h512v-103h-512z" />
    <glyph glyph-name="Ohungarumlaut" unicode="&#x150;" horiz-adv-x="1433" 
d="M922 1229h-410v-103h-102v-102h-103v-307h-102v-103h102v-204h103v-103h102v-102h410v102h102v205h102v205h103v102h-103v205h-102v102h-102v103zM102 307v819h103v103h102v102h103v103h614v-103h102v-102h103v-103h102v-716h-102v-205h-103v-103h-102v-102h-614v102
h-205v205h-103zM358 1638v205h103v103h205v-205h-103v-103h-205zM768 1638v205h102v103h205v-205h-102v-103h-205z" />
    <glyph glyph-name="ohungarumlaut" unicode="&#x151;" horiz-adv-x="1228" 
d="M205 410h-103v204h103v205h102v103h103v102h409v-102h103v-103h102v-205h102v-204h-102v-205h-102v-103h-103v-102h-409v102h-103v103h-102v205zM256 1229v205h102v102h205v-205h-102v-102h-205zM307 410h103v-205h409v205h103v204h-103v205h-409v-205h-103v-204z
M666 1229v205h102v102h205v-205h-103v-102h-204z" />
    <glyph glyph-name="OE" unicode="&#x152;" horiz-adv-x="2048" 
d="M922 1229h-410v-103h-102v-102h-103v-307h-102v-103h102v-204h103v-103h102v-102h410v102h102v205h102v512h-102v102h-102v103zM102 307v819h103v103h102v102h103v103h614v-103h102v103h820v-205h-615v-410h512v-102h-102v-103h-410v-409h615v-205h-820v102h-102v-102
h-614v102h-205v205h-103zM1126 1229h103v102h-103v-102z" />
    <glyph glyph-name="oe" unicode="&#x153;" horiz-adv-x="1740" 
d="M205 410h-103v204h103v205h102v103h103v102h409v-102h205v102h410v-102h102v-103h102v-307h-102v-102h-512v-205h410v102h204v-102h-102v-103h-102v-102h-410v102h-205v-102h-409v102h-103v103h-102v205zM307 410h103v-205h409v205h103v204h-103v205h-409v-205h-103v-204
zM1024 614h512v103h-102v102h-410v-205z" />
    <glyph glyph-name="Racute" unicode="&#x154;" 
d="M102 0v1434h512v-103h205v-102h103v-103h102v-512h-102v-102h-205v-102h102v-103h103v-102h102v-205h-205v205h-205v102h-102v103h-205v-410h-205zM205 819h102v-205h410v103h102v307h-102v102h-103v103h-307v-307h-102v-103zM410 1638v205h102v103h205v-205h-103v-103
h-204z" />
    <glyph glyph-name="racute" unicode="&#x155;" horiz-adv-x="819" 
d="M102 1024h205v-102h103v102h204v-102h103v-205h-103v102h-204v-102h-103v-717h-205v1024zM256 1229v205h102v102h205v-205h-102v-102h-205z" />
    <glyph glyph-name="uni0156" unicode="&#x156;" 
d="M102 0v1434h512v-103h205v-102h103v-103h102v-512h-102v-102h-205v-102h102v-103h103v-102h102v-205h-205v205h-205v102h-102v103h-205v-410h-205zM205 819h102v-205h410v103h102v307h-102v102h-103v103h-307v-307h-102v-103zM410 -410v205h102v103h205v-205h-103v-103
h-204z" />
    <glyph glyph-name="uni0157" unicode="&#x157;" horiz-adv-x="819" 
d="M102 1024h205v-102h103v102h204v-102h103v-205h-103v102h-204v-102h-103v-717h-205v1024zM256 -410v205h102v103h205v-205h-102v-103h-205z" />
    <glyph glyph-name="Rcaron" unicode="&#x158;" 
d="M102 0v1434h512v-103h205v-102h103v-103h102v-512h-102v-102h-205v-102h102v-103h103v-102h102v-205h-205v205h-205v102h-102v103h-205v-410h-205zM205 819h102v-205h410v103h102v307h-102v102h-103v103h-307v-307h-102v-103zM307 1843v103h205v-103h102v103h205v-103
h-102v-102h-103v-103h-102v103h-102v102h-103z" />
    <glyph glyph-name="rcaron" unicode="&#x159;" horiz-adv-x="819" 
d="M102 1024h205v-102h103v102h204v-102h103v-205h-103v102h-204v-102h-103v-717h-205v1024zM154 1434v102h204v-102h103v102h205v-102h-103v-103h-102v-102h-103v102h-102v103h-102z" />
    <glyph glyph-name="Sacute" unicode="&#x15a;" horiz-adv-x="1228" 
d="M922 1126h-103v103h-102v102h-103v-102h-204v-103h-103v-204h103v-103h307v-102h205v-103h102v-102h102v-307h-102v-103h-102v-102h-615v102h-102v103h-103v205h205v-103h103v-102h204v-103h103v103h205v307h-205v102h-307v103h-205v102h-103v410h103v102h102v103h512
v-103h205v-205h102v-204h-204v204zM461 1638v205h102v103h205v-205h-102v-103h-205z" />
    <glyph glyph-name="sacute" unicode="&#x15b;" horiz-adv-x="1024" 
d="M717 717v102h-410v-205h512v-102h103v-410h-103v-102h-614v102h-103v205h205v-102h410v205h-512v102h-103v410h103v102h614v-102h103v-205h-205zM358 1229v205h103v102h205v-205h-103v-102h-205z" />
    <glyph glyph-name="Scedilla" unicode="&#x15e;" horiz-adv-x="1228" 
d="M922 1126h-103v103h-102v102h-103v-102h-204v-103h-103v-204h103v-103h307v-102h205v-103h102v-102h102v-307h-102v-103h-102v-102h-308v-205h205v-102h103v-205h-103v-102h-102v-103h-307v103h-103v102h410v205h-307v307h-103v102h-102v103h-103v205h205v-103h103v-102
h204v-103h103v103h205v307h-205v102h-307v103h-205v102h-103v410h103v102h102v103h512v-103h205v-205h102v-204h-204v204z" />
    <glyph glyph-name="scedilla" unicode="&#x15f;" horiz-adv-x="1024" 
d="M717 717v102h-410v-205h512v-102h103v-410h-103v-102h-307v-205h205v-102h102v-205h-102v-102h-103v-103h-307v103h-102v102h409v205h-307v307h-102v102h-103v205h205v-102h410v205h-512v102h-103v410h103v102h614v-102h103v-205h-205z" />
    <glyph glyph-name="Scaron" unicode="&#x160;" horiz-adv-x="1228" 
d="M922 1126h-103v103h-102v102h-103v-102h-204v-103h-103v-204h103v-103h307v-102h205v-103h102v-102h102v-307h-102v-103h-102v-102h-615v102h-102v103h-103v205h205v-103h103v-102h204v-103h103v103h205v307h-205v102h-307v103h-205v102h-103v410h103v102h102v103h512
v-103h205v-205h102v-204h-204v204zM358 1843v103h205v-103h103v103h204v-103h-102v-102h-102v-103h-103v103h-102v102h-103z" />
    <glyph glyph-name="scaron" unicode="&#x161;" horiz-adv-x="1024" 
d="M717 717v102h-410v-205h512v-102h103v-410h-103v-102h-614v102h-103v205h205v-102h410v205h-512v102h-103v410h103v102h614v-102h103v-205h-205zM256 1434v102h205v-102h102v102h205v-102h-102v-103h-103v-102h-102v102h-103v103h-102z" />
    <glyph glyph-name="uni0162" unicode="&#x162;" horiz-adv-x="1228" 
d="M102 1229v205h1024v-205h-409v-1024h-103v-103h103v-102h-103v-205h205v-102h103v-205h-103v-102h-102v-103h-307v103h-103v102h410v205h-307v307h102v1229h-410z" />
    <glyph glyph-name="uni0163" unicode="&#x163;" horiz-adv-x="1024" 
d="M512 102h-102v103h-103v614h-205v205h205v307h205v-307h205v-205h-205v-512h102v-102h103v102h205v-205h-103v-102h-41v-205h205v-102h102v-205h-102v-102h-102v-103h-308v103h-102v102h410v205h-308v307h-61v102z" />
    <glyph glyph-name="Tcaron" unicode="&#x164;" horiz-adv-x="1228" 
d="M102 1229v205h1024v-205h-409v-1024h-103v-103h103v-102h-205v1229h-410zM358 1843v103h205v-103h103v103h204v-103h-102v-102h-102v-103h-103v103h-102v102h-103z" />
    <glyph glyph-name="tcaron" unicode="&#x165;" horiz-adv-x="1024" 
d="M512 102h-102v103h-103v614h-205v205h205v307h205v-307h205v-205h-205v-512h102v-102h103v102h205v-205h-103v-102h-307v102zM1024 1229v205h205v-308h-103v103h-102z" />
    <glyph glyph-name="Utilde" unicode="&#x168;" horiz-adv-x="1331" 
d="M1126 205v-103h-102v-102h-717v102h-102v103h-103v1229h205v-1127h103v-102h204v-103h103v103h205v102h102v1127h205v-1229h-103zM358 1741v102h103v-102h-103zM461 1843v103h205v-103h102v-102h102v-103h-204v103h-103v102h-102zM870 1741v102h103v-102h-103z" />
    <glyph glyph-name="utilde" unicode="&#x169;" 
d="M1024 0h-205v102h-102v-102h-410v102h-102v103h-103v819h205v-819h410v102h102v717h205v-1024zM256 1331v103h102v-103h-102zM358 1434v102h205v-102h103v-103h102v-102h-205v102h-102v103h-103zM768 1331v103h102v-103h-102z" />
    <glyph glyph-name="Umacron" unicode="&#x16a;" horiz-adv-x="1331" 
d="M1126 205v-103h-102v-102h-717v102h-102v103h-103v1229h205v-1127h103v-102h204v-103h103v103h205v102h102v1127h205v-1229h-103zM410 1741v102h512v-102h-512z" />
    <glyph glyph-name="umacron" unicode="&#x16b;" 
d="M1024 0h-205v102h-102v-102h-410v102h-102v103h-103v819h205v-819h410v102h102v717h205v-1024zM307 1331v103h512v-103h-512z" />
    <glyph glyph-name="Uring" unicode="&#x16e;" horiz-adv-x="1331" 
d="M1126 205v-103h-102v-102h-717v102h-102v103h-103v1229h205v-1127h103v-102h204v-103h103v103h205v102h102v1127h205v-1229h-103zM512 1741v102h102v-102h-102zM614 1638v103h103v-103h-103zM614 1843v103h103v-103h-103zM717 1741v102h102v-102h-102z" />
    <glyph glyph-name="uring" unicode="&#x16f;" 
d="M1024 0h-205v102h-102v-102h-410v102h-102v103h-103v819h205v-819h410v102h102v717h205v-1024zM410 1331v103h102v-103h-102zM512 1229v102h102v-102h-102zM512 1434v102h102v-102h-102zM614 1331v103h103v-103h-103z" />
    <glyph glyph-name="Uhungarumlaut" unicode="&#x170;" horiz-adv-x="1331" 
d="M1126 205v-103h-102v-102h-717v102h-102v103h-103v1229h205v-1127h103v-102h204v-103h103v103h205v102h102v1127h205v-1229h-103zM307 1638v205h103v103h204v-205h-102v-103h-205zM717 1638v205h102v103h205v-205h-102v-103h-205z" />
    <glyph glyph-name="uhungarumlaut" unicode="&#x171;" 
d="M1024 0h-205v102h-102v-102h-410v102h-102v103h-103v819h205v-819h410v102h102v717h205v-1024zM205 1229v205h102v102h205v-205h-102v-102h-205zM614 1229v205h103v102h205v-205h-103v-102h-205z" />
    <glyph glyph-name="Uogonek" unicode="&#x172;" horiz-adv-x="1331" 
d="M1126 205v-103h-102v-82h72v-102h-103v-102h-102v-103h307v-102h-410v307h103v82h-584v102h-102v103h-103v1229h205v-1127h103v-102h204v-103h103v103h205v102h102v1127h205v-1229h-103z" />
    <glyph glyph-name="uogonek" unicode="&#x173;" 
d="M1024 0h-113v-82h-102v-102h-102v-103h307v-102h-410v307h103v82h-400v102h-102v103h-103v819h205v-819h410v102h102v717h205v-1024zM717 20h102v82h-102v-82z" />
    <glyph glyph-name="Wcircumflex" unicode="&#x174;" horiz-adv-x="1945" 
d="M102 1434h205v-205h103v-307h102v-512h102v102h103v307h102v205h103v102h102v-102h102v-205h103v-307h102v-102h103v512h102v307h102v205h205v-308h-102v-307h-103v-409h-102v-205h-102v-205h-205v307h-103v205h-102v307h-102v-307h-103v-205h-102v-307h-205v205h-102
v205h-103v409h-102v307h-103v308zM717 1638v103h102v102h103v103h102v-103h102v-102h103v-103h-205v103h-102v-103h-205z" />
    <glyph glyph-name="wcircumflex" unicode="&#x175;" horiz-adv-x="1740" 
d="M410 102h-103v103h-102v205h-103v614h205v-512h103v-307h102v205h102v204h103v205h102v103h103v-103h102v-205h102v-204h103v-205h102v307h103v512h204v-614h-102v-205h-102v-103h-103v-102h-205v102h-102v205h-102v307h-103v-307h-102v-205h-103v-102h-204v102z
M614 1229v102h103v103h102v102h103v-102h102v-103h102v-102h-204v102h-103v-102h-205z" />
    <glyph glyph-name="Ycircumflex" unicode="&#x176;" horiz-adv-x="1433" 
d="M205 1229h-103v205h205v-103h103v-102h102v-205h102v-205h205v205h103v205h102v102h102v103h205v-205h-102v-103h-103v-204h-102v-103h-102v-205h-103v-614h-205v614h-102v205h-102v103h-103v204h-102v103zM461 1638v103h102v102h103v103h102v-103h102v-102h103v-103
h-205v103h-102v-103h-205z" />
    <glyph glyph-name="ycircumflex" unicode="&#x177;" 
d="M1024 -205h-102v-102h-103v-103h-512v103h-102v102h-103v103h308v-103h307v103h102v204h-102v-102h-410v102h-102v103h-103v819h205v-717h103v-102h307v102h102v717h205v-1229zM307 1229v102h103v103h102v102h102v-102h103v-103h102v-102h-205v102h-102v-102h-205z" />
    <glyph glyph-name="Ydieresis" unicode="&#x178;" horiz-adv-x="1433" 
d="M205 1229h-103v205h205v-103h103v-102h102v-205h102v-205h205v205h103v205h102v102h102v103h205v-205h-102v-103h-103v-204h-102v-103h-102v-205h-103v-614h-205v614h-102v205h-102v103h-103v204h-102v103zM410 1638v205h204v-205h-204zM819 1638v205h205v-205h-205z" />
    <glyph glyph-name="Zacute" unicode="&#x179;" horiz-adv-x="1228" 
d="M102 0v307h103v205h102v102h103v103h102v102h102v103h103v102h102v102h103v103h-820v205h1024v-410h-102v-102h-102v-103h-103v-102h-102v-103h-103v-102h-102v-102h-102v-205h-103v-103h105v103h714v-205h-1024zM461 1638v205h102v103h205v-205h-102v-103h-205z" />
    <glyph glyph-name="zacute" unicode="&#x17a;" horiz-adv-x="1024" 
d="M102 1024h820v-307h-103v-103h-102v-102h-103v-102h-102v-103h-102v-102h512v-205h-820v205h103v102h102v103h103v102h102v102h102v103h103v102h-615v205zM358 1229v205h103v102h205v-205h-103v-102h-205z" />
    <glyph glyph-name="Zdotaccent" unicode="&#x17b;" horiz-adv-x="1228" 
d="M102 0v307h103v205h102v102h103v103h102v102h102v103h103v102h102v102h103v103h-820v205h1024v-410h-102v-102h-102v-103h-103v-102h-102v-103h-103v-102h-102v-102h-102v-205h-103v-103h105v103h714v-205h-1024zM512 1638v205h205v-205h-205z" />
    <glyph glyph-name="zdotaccent" unicode="&#x17c;" horiz-adv-x="1024" 
d="M102 1024h820v-307h-103v-103h-102v-102h-103v-102h-102v-103h-102v-102h512v-205h-820v205h103v102h102v103h103v102h102v102h102v103h103v102h-615v205zM410 1229v205h204v-205h-204z" />
    <glyph glyph-name="Zcaron" unicode="&#x17d;" horiz-adv-x="1228" 
d="M102 0v307h103v205h102v102h103v103h102v102h102v103h103v102h102v102h103v103h-820v205h1024v-410h-102v-102h-102v-103h-103v-102h-102v-103h-103v-102h-102v-102h-102v-205h-103v-103h105v103h714v-205h-1024zM358 1843v103h205v-103h103v103h204v-103h-102v-102h-102
v-103h-103v103h-102v102h-103z" />
    <glyph glyph-name="zcaron" unicode="&#x17e;" horiz-adv-x="1024" 
d="M102 1024h820v-307h-103v-103h-102v-102h-103v-102h-102v-103h-102v-102h512v-205h-820v205h103v102h102v103h103v102h102v102h102v103h103v102h-615v205zM256 1434v102h205v-102h102v102h205v-102h-102v-103h-103v-102h-102v102h-103v103h-102z" />
    <glyph glyph-name="uni018F" unicode="&#x18f;" horiz-adv-x="1433" 
d="M922 1229h-410v-103h-102v-102h-308v102h103v103h102v102h103v103h614v-103h102v-102h103v-103h102v-716h-102v-205h-103v-103h-102v-102h-614v102h-205v205h-103v410h103v102h921v205h-102v102h-102v103zM307 410h103v-103h102v-102h410v102h102v205h102v102h-819v-204z
" />
    <glyph glyph-name="uni0218" unicode="&#x218;" horiz-adv-x="1228" 
d="M922 1126h-103v103h-102v102h-103v-102h-204v-103h-103v-204h103v-103h307v-102h205v-103h102v-102h102v-307h-102v-103h-102v-102h-615v102h-102v103h-103v205h205v-103h103v-102h204v-103h103v103h205v307h-205v102h-307v103h-205v102h-103v410h103v102h102v103h512
v-103h205v-205h102v-204h-204v204zM461 -410v205h102v103h205v-205h-102v-103h-205z" />
    <glyph glyph-name="uni0219" unicode="&#x219;" horiz-adv-x="1024" 
d="M717 717v102h-410v-205h512v-102h103v-410h-103v-102h-614v102h-103v205h205v-102h410v205h-512v102h-103v410h103v102h614v-102h103v-205h-205zM358 -410v205h103v103h205v-205h-103v-103h-205z" />
    <glyph glyph-name="uni021A" unicode="&#x21a;" horiz-adv-x="1228" 
d="M102 1229v205h1024v-205h-409v-1024h-103v-103h103v-102h-205v1229h-410zM461 -410v205h102v103h205v-205h-102v-103h-205z" />
    <glyph glyph-name="uni021B" unicode="&#x21b;" horiz-adv-x="1024" 
d="M512 102h-102v103h-103v614h-205v205h205v307h205v-307h205v-205h-205v-512h102v-102h103v102h205v-205h-103v-102h-307v102zM625 -410v205h102v103h205v-205h-103v-103h-204z" />
    <glyph glyph-name="uni0237" unicode="&#x237;" horiz-adv-x="614" 
d="M307 -205v-102h-307v205h205v102h102v1024h205v-1126h-102v-103h-103z" />
    <glyph glyph-name="uni0259" unicode="&#x259;" 
d="M922 614h102v-204h-102v-205h-103v-103h-102v-102h-410v102h-102v103h-103v307h103v102h512v205h-410v-102h-205v102h103v103h102v102h410v-102h102v-103h103v-205zM205 307h102v-102h410v307h-103v-102h-409v-103z" />
    <glyph glyph-name="gravecomb" unicode="&#x300;" horiz-adv-x="0" 
d="M102 1331v205h205v-102h103v-205h-205v102h-103z" />
    <glyph glyph-name="acutecomb" unicode="&#x301;" horiz-adv-x="0" 
d="M410 1331h-103v-102h-205v205h103v102h205v-205z" />
    <glyph glyph-name="uni0302" unicode="&#x302;" horiz-adv-x="0" 
d="M307 1434v102h103v-102h102v-103h102v-102h-204v102h-103v-102h-205v102h103v103h102z" />
    <glyph glyph-name="tildecomb" unicode="&#x303;" horiz-adv-x="0" 
d="M205 1434v-103h-103v103h103zM205 1434v102h205v-102h102v-103h102v-102h-204v102h-103v103h-102zM614 1331v103h103v-103h-103z" />
    <glyph glyph-name="uni0304" unicode="&#x304;" horiz-adv-x="0" 
d="M102 1331v103h512v-103h-512z" />
    <glyph glyph-name="uni0306" unicode="&#x306;" horiz-adv-x="0" 
d="M205 1434h-103v102h205v-102h103v-103h204v103h103v102h205v-102h-103v-103h-102v-102h-410v102h-102v103z" />
    <glyph glyph-name="uni0307" unicode="&#x307;" horiz-adv-x="0" 
d="M102 1434h205v-205h-205v205z" />
    <glyph glyph-name="uni0308" unicode="&#x308;" horiz-adv-x="0" 
d="M102 1434h205v-205h-205v205zM512 1229v205h205v-205h-205z" />
    <glyph glyph-name="uni030A" unicode="&#x30a;" horiz-adv-x="0" 
d="M102 1331v103h103v-103h-103zM205 1229v102h102v-102h-102zM205 1434v102h102v-102h-102zM307 1331v103h103v-103h-103z" />
    <glyph glyph-name="uni030B" unicode="&#x30b;" horiz-adv-x="0" 
d="M410 1331h-103v-102h-205v205h103v102h205v-205zM512 1229v205h102v102h205v-205h-102v-102h-205z" />
    <glyph glyph-name="uni030C" unicode="&#x30c;" horiz-adv-x="0" 
d="M307 1331h-102v103h-103v102h205v-102h103v102h204v-102h-102v-103h-102v-102h-103v102z" />
    <glyph glyph-name="uni0312" unicode="&#x312;" horiz-adv-x="0" 
d="M102 1331v410h205v-103h-102v-102h102v-205h-205z" />
    <glyph glyph-name="uni0326" unicode="&#x326;" horiz-adv-x="0" 
d="M410 -307h-103v-103h-205v205h103v103h205v-205z" />
    <glyph glyph-name="uni0327" unicode="&#x327;" horiz-adv-x="0" 
d="M205 -307v307h205v-205h204v-102h103v-205h-103v-102h-102v-103h-307v103h-103v102h410v205h-307z" />
    <glyph glyph-name="uni0328" unicode="&#x328;" horiz-adv-x="0" 
d="M307 -102v-103h-102v-102h307v-103h-410v308h103v102h205v-102h-103z" />
    <glyph glyph-name="uni0E3F" unicode="&#xe3f;" horiz-adv-x="1228" 
d="M512 1331v-102h-205v-410h307v103h103v102h102v102h-102v103h-103v102h-102zM102 0v1434h308v204h204v-204h205v-103h103v-102h102v-307h-102v-103h-103v-102h103v-103h102v-102h102v-307h-102v-103h-102v-102h-308v-205h-204v205h-308zM307 205h205v-103h102v103h205
v102h103v103h-103v102h-102v205h-103v-103h-307v-409z" />
    <glyph glyph-name="Wgrave" unicode="&#x1e80;" horiz-adv-x="1945" 
d="M102 1434h205v-205h103v-307h102v-512h102v102h103v307h102v205h103v102h102v-102h102v-205h103v-307h102v-102h103v512h102v307h102v205h205v-308h-102v-307h-103v-409h-102v-205h-102v-205h-205v307h-103v205h-102v307h-102v-307h-103v-205h-102v-307h-205v205h-102
v205h-103v409h-102v307h-103v308zM819 1741v205h205v-103h102v-205h-204v103h-103z" />
    <glyph glyph-name="wgrave" unicode="&#x1e81;" horiz-adv-x="1740" 
d="M410 102h-103v103h-102v205h-103v614h205v-512h103v-307h102v205h102v204h103v205h102v103h103v-103h102v-205h102v-204h103v-205h102v307h103v512h204v-614h-102v-205h-102v-103h-103v-102h-205v102h-102v205h-102v307h-103v-307h-102v-205h-103v-102h-204v102z
M717 1331v205h205v-102h102v-205h-205v102h-102z" />
    <glyph glyph-name="Wacute" unicode="&#x1e82;" horiz-adv-x="1945" 
d="M102 1434h205v-205h103v-307h102v-512h102v102h103v307h102v205h103v102h102v-102h102v-205h103v-307h102v-102h103v512h102v307h102v205h205v-308h-102v-307h-103v-409h-102v-205h-102v-205h-205v307h-103v205h-102v307h-102v-307h-103v-205h-102v-307h-205v205h-102
v205h-103v409h-102v307h-103v308zM819 1638v205h103v103h204v-205h-102v-103h-205z" />
    <glyph glyph-name="wacute" unicode="&#x1e83;" horiz-adv-x="1740" 
d="M410 102h-103v103h-102v205h-103v614h205v-512h103v-307h102v205h102v204h103v205h102v103h103v-103h102v-205h102v-204h103v-205h102v307h103v512h204v-614h-102v-205h-102v-103h-103v-102h-205v102h-102v205h-102v307h-103v-307h-102v-205h-103v-102h-204v102z
M717 1229v205h102v102h205v-205h-102v-102h-205z" />
    <glyph glyph-name="Wdieresis" unicode="&#x1e84;" horiz-adv-x="1945" 
d="M102 1434h205v-205h103v-307h102v-512h102v102h103v307h102v205h103v102h102v-102h102v-205h103v-307h102v-102h103v512h102v307h102v205h205v-308h-102v-307h-103v-409h-102v-205h-102v-205h-205v307h-103v205h-102v307h-102v-307h-103v-205h-102v-307h-205v205h-102
v205h-103v409h-102v307h-103v308zM666 1638v205h204v-205h-204zM1075 1638v205h205v-205h-205z" />
    <glyph glyph-name="wdieresis" unicode="&#x1e85;" horiz-adv-x="1740" 
d="M410 102h-103v103h-102v205h-103v614h205v-512h103v-307h102v205h102v204h103v205h102v103h103v-103h102v-205h102v-204h103v-205h102v307h103v512h204v-614h-102v-205h-102v-103h-103v-102h-205v102h-102v205h-102v307h-103v-307h-102v-205h-103v-102h-204v102z
M563 1229v205h205v-205h-205zM973 1229v205h205v-205h-205z" />
    <glyph glyph-name="uni1E9E" unicode="&#x1e9e;" horiz-adv-x="1228" 
d="M512 1331v-102h-205v-1229h-205v1434h922v-512h-102v-103h-103v-102h103v-103h102v-102h102v-307h-102v-103h-102v-102h-410v102h102v103h205v102h103v103h-103v102h-102v102h-103v103h-204v102h204v103h103v102h102v205h-205v102h-102z" />
    <glyph glyph-name="uni1EBC" unicode="&#x1ebc;" horiz-adv-x="1024" 
d="M205 1331h-103v103h820v-205h-615v-410h512v-102h-102v-103h-410v-409h615v-205h-820v1229h103v102zM205 1741v102h102v-102h-102zM307 1843v103h205v-103h102v-102h103v-103h-205v103h-102v102h-103zM717 1741v102h102v-102h-102z" />
    <glyph glyph-name="uni1EBD" unicode="&#x1ebd;" 
d="M205 410h-103v204h103v205h102v103h103v102h409v-102h103v-103h102v-307h-102v-102h-512v-205h409v102h205v-102h-102v-103h-103v-102h-409v102h-103v103h-102v205zM256 1331v103h102v-103h-102zM358 1434v102h205v-102h103v-103h102v-102h-205v102h-102v103h-103z
M410 512h102v102h410v103h-103v102h-409v-307zM768 1331v103h102v-103h-102z" />
    <glyph glyph-name="Ygrave" unicode="&#x1ef2;" horiz-adv-x="1433" 
d="M205 1229h-103v205h205v-103h103v-102h102v-205h102v-205h205v205h103v205h102v102h102v103h205v-205h-102v-103h-103v-204h-102v-103h-102v-205h-103v-614h-205v614h-102v205h-102v103h-103v204h-102v103zM563 1741v205h205v-103h102v-205h-204v103h-103z" />
    <glyph glyph-name="ygrave" unicode="&#x1ef3;" 
d="M1024 -205h-102v-102h-103v-103h-512v103h-102v102h-103v103h308v-103h307v103h102v204h-102v-102h-410v102h-102v103h-103v819h205v-717h103v-102h307v102h102v717h205v-1229zM410 1331v205h204v-102h103v-205h-205v102h-102z" />
    <glyph glyph-name="uni1EF8" unicode="&#x1ef8;" horiz-adv-x="1433" 
d="M205 1229h-103v205h205v-103h103v-102h102v-205h102v-205h205v205h103v205h102v102h102v103h205v-205h-102v-103h-103v-204h-102v-103h-102v-205h-103v-614h-205v614h-102v205h-102v103h-103v204h-102v103zM410 1741v102h102v-102h-102zM512 1843v103h205v-103h102v-102
h103v-103h-205v103h-103v102h-102zM922 1741v102h102v-102h-102z" />
    <glyph glyph-name="endash" unicode="&#x2013;" horiz-adv-x="1228" 
d="M102 717h1024v-205h-1024v205z" />
    <glyph glyph-name="emdash" unicode="&#x2014;" horiz-adv-x="2252" 
d="M102 717h2048v-205h-2048v205z" />
    <glyph glyph-name="quoteleft" unicode="&#x2018;" horiz-adv-x="409" 
d="M307 1126h-205v308h103v-103h102v-205z" />
    <glyph glyph-name="quoteright" unicode="&#x2019;" horiz-adv-x="409" 
d="M102 1434h205v-308h-102v103h-103v205z" />
    <glyph glyph-name="quotesinglbase" unicode="&#x201a;" horiz-adv-x="409" 
d="M102 205h205v-307h-102v102h-103v205z" />
    <glyph glyph-name="quotedblleft" unicode="&#x201c;" horiz-adv-x="409" 
d="M307 1126h-205v308h103v-103h102v-205z" />
    <glyph glyph-name="quotedblright" unicode="&#x201d;" horiz-adv-x="716" 
d="M102 1434h205v-308h-102v103h-103v205zM410 1229v205h204v-308h-102v103h-102z" />
    <glyph glyph-name="quotedblbase" unicode="&#x201e;" horiz-adv-x="409" 
d="M102 205h205v-307h-102v102h-103v205z" />
    <glyph glyph-name="dagger" unicode="&#x2020;" horiz-adv-x="819" 
d="M307 1536h205v-205h205v-205h-205v-512h-205v512h-205v205h205v205z" />
    <glyph glyph-name="daggerdbl" unicode="&#x2021;" horiz-adv-x="819" 
d="M307 1536h205v-205h205v-205h-205v-102h205v-205h-205v-205h-205v205h-205v205h205v102h-205v205h205v205z" />
    <glyph glyph-name="bullet" unicode="&#x2022;" horiz-adv-x="614" 
d="M102 819h410v-409h-410v409z" />
    <glyph glyph-name="ellipsis" unicode="&#x2026;" horiz-adv-x="409" 
d="M102 0v205h205v-205h-205z" />
    <glyph glyph-name="perthousand" unicode="&#x2030;" horiz-adv-x="2252" 
d="M1126 410v102h308v-102h102v-512h-102v-103h-308v103h-102v512h102zM102 819v512h103v103h307v-103h102v-512h-102v-102h-307v102h-103zM307 922h103v307h-103v-307zM410 -307v307h102v205h102v307h103v307h102v307h103v205h102v205h205v-307h-103v-205h-102v-307h-102
v-307h-103v-205h-102v-307h-103v-205h-204zM1229 0h102v307h-102v-307zM1638 -102v512h103v102h307v-102h102v-512h-102v-103h-307v103h-103zM1843 0h103v307h-103v-307z" />
    <glyph glyph-name="guilsinglleft" unicode="&#x2039;" horiz-adv-x="819" 
d="M205 512h-103v102h103v103h102v102h103v103h102v102h205v-205h-103v-102h-102v-103h-102v-102h102v-102h102v-103h103v-205h-205v103h-102v102h-103v103h-102v102z" />
    <glyph glyph-name="guilsinglright" unicode="&#x203a;" horiz-adv-x="819" 
d="M614 512v-102h-102v-103h-102v-102h-103v-103h-205v205h103v103h102v102h103v102h-103v103h-102v102h-103v205h205v-102h103v-103h102v-102h102v-103h103v-102h-103z" />
    <glyph glyph-name="uni20AA" unicode="&#x20aa;" horiz-adv-x="1536" 
d="M307 1229v-1229h-205v1331h103v103h717v-103h102v-205h102v-716h-204v614h-103v205h-512zM410 307v717h204v-614h103v-205h512v1229h205v-1332h-103v-102h-717v102h-102v205h-102z" />
    <glyph glyph-name="Euro" unicode="&#x20ac;" horiz-adv-x="1536" 
d="M1126 1229h-409v-103h-103v-102h-102v-205h205v-102h-205v-103h205v-102h-205v-102h102v-103h103v-102h409v102h103v205h102v102h103v-409h-103v-103h-102v-102h-615v102h-204v205h-103v205h-205v102h205v103h-205v102h205v307h103v103h102v102h102v103h615v-103h102
v-102h103v-205h-205v102h-103v103z" />
    <glyph glyph-name="uni20B4" unicode="&#x20b4;" horiz-adv-x="1228" 
d="M307 1126v-204h-205v204h103v205h205v103h512v-103h102v-102h102v-410h-102v-102h-819v102h205v103h512v204h-103v103h-205v102h-102v-102h-102v-103h-103zM102 205v307h103v102h819v-102h-205v-102h-512v-205h205v-103h102v103h205v102h103v103h204v-205h-102v-103h-102
v-102h-615v102h-102v103h-103z" />
    <glyph glyph-name="uni20B9" unicode="&#x20b9;" 
d="M102 1434h922v-103h-512v-102h205v-103h102v-204h205v-103h-205v-205h-102v-102h-205v-102h102v-103h103v-102h102v-205h-205v205h-204v102h-103v103h-205v204h410v103h102v102h-512v103h512v102h-102v102h-205v103h-205v205z" />
    <glyph glyph-name="uni20BD" unicode="&#x20bd;" horiz-adv-x="1331" 
d="M307 0v205h-205v102h205v1127h512v-103h205v-102h102v-103h103v-512h-103v-102h-204v-102h-410v-103h205v-102h-205v-205h-205zM410 819h102v-205h410v103h102v307h-102v102h-103v103h-307v-307h-102v-103z" />
    <glyph glyph-name="trademark" unicode="&#x2122;" horiz-adv-x="2662" 
d="M102 1229v205h1024v-205h-409v-1024h-103v-103h103v-102h-205v1229h-410zM1331 0v1434h205v-205h102v-103h103v-204h102v-103h205v205h102v102h103v103h102v205h205v-1024h-102v-103h102v-307h-205v922h-102v-103h-103v-205h-102v-204h-205v204h-102v103h-103v205h-100
v102h-104v-102h102v-922h-205z" />
    <glyph glyph-name="arrowleft" unicode="&#x2190;" horiz-adv-x="1740" 
d="M1638 614h-1126v-102h102v-102h103v-205h-205v102h-102v103h-103v102h-102v102h-103v205h103v103h102v102h103v102h102v103h205v-205h-103v-102h-102v-103h1126v-205z" />
    <glyph glyph-name="arrowup" unicode="&#x2191;" horiz-adv-x="1228" 
d="M512 0v1126h-102v-102h-103v-102h-205v204h103v103h102v102h103v103h102v102h205v-102h102v-103h103v-102h102v-103h102v-204h-204v102h-103v102h-102v-1126h-205z" />
    <glyph glyph-name="arrowright" unicode="&#x2192;" horiz-adv-x="1740" 
d="M102 819h1127v103h-103v102h-102v205h205v-103h102v-102h103v-102h102v-103h102v-205h-102v-102h-102v-102h-103v-103h-102v-102h-205v205h102v102h103v102h-1127v205z" />
    <glyph glyph-name="arrowdown" unicode="&#x2193;" horiz-adv-x="1228" 
d="M512 1536h205v-1126h102v102h103v102h204v-204h-102v-103h-102v-102h-103v-103h-102v-102h-205v102h-102v103h-103v102h-102v103h-103v204h205v-102h103v-102h102v1126z" />
    <glyph glyph-name="arrowboth" unicode="&#x2194;" horiz-adv-x="1740" 
d="M1331 410v-103h-102v-102h-205v205h102v102h103v102h-717v-102h102v-102h103v-205h-205v102h-102v103h-103v102h-102v102h-103v205h103v103h102v102h103v102h102v103h205v-205h-103v-102h-102v-103h717v103h-103v102h-102v205h205v-103h102v-102h103v-102h102v-103h102
v-205h-102v-102h-102v-102h-103z" />
    <glyph glyph-name="arrowupdn" unicode="&#x2195;" horiz-adv-x="1228" 
d="M307 307h-102v103h-103v204h205v-102h103v-102h102v716h-102v-102h-103v-102h-205v204h103v103h102v102h103v103h102v102h205v-102h102v-103h103v-102h102v-103h102v-204h-204v102h-103v102h-102v-716h102v102h103v102h204v-204h-102v-103h-102v-102h-103v-103h-102v-102
h-205v102h-102v103h-103v102z" />
    <glyph glyph-name="uni2196" unicode="&#x2196;" horiz-adv-x="1433" 
d="M922 1229h-410v-103h102v-102h103v-102h102v-103h103v-102h102v-103h102v-102h103v-102h102v-205h-205v102h-102v103h-102v102h-103v102h-102v103h-103v102h-102v103h-102v102h-103v-410h-205v820h820v-205z" />
    <glyph glyph-name="uni2197" unicode="&#x2197;" horiz-adv-x="1433" 
d="M512 1434h819v-820h-205v410h-102v-102h-102v-103h-103v-102h-102v-103h-103v-102h-102v-102h-102v-103h-103v-102h-205v205h103v102h102v102h103v103h102v102h102v103h103v102h102v102h103v103h-410v205z" />
    <glyph glyph-name="uni2198" unicode="&#x2198;" horiz-adv-x="1433" 
d="M512 410h410v102h-103v102h-102v103h-103v102h-102v103h-102v102h-103v102h-102v103h-103v205h205v-103h103v-102h102v-103h102v-102h103v-102h102v-103h103v-102h102v-103h102v410h205v-819h-819v205z" />
    <glyph glyph-name="uni2199" unicode="&#x2199;" horiz-adv-x="1433" 
d="M922 205h-820v819h205v-410h103v103h102v102h102v103h103v102h102v102h103v103h102v102h102v103h205v-205h-102v-103h-103v-102h-102v-102h-102v-103h-103v-102h-102v-103h-103v-102h-102v-102h410v-205z" />
    <glyph glyph-name="partialdiff" unicode="&#x2202;" 
d="M1024 205h-102v-103h-103v-102h-512v102h-102v103h-103v512h103v102h102v103h512v102h-102v205h-307v102h-103v103h410v-103h205v-205h102v-921zM307 307h103v-102h307v102h102v205h103v102h-103v103h-409v-103h-103v-307z" />
    <glyph glyph-name="product" unicode="&#x220f;" horiz-adv-x="1433" 
d="M307 1229h-205v205h1229v-205h-205v-1229h-204v1229h-410v-1229h-205v1229z" />
    <glyph glyph-name="summation" unicode="&#x2211;" 
d="M102 -307v409h103v103h102v102h103v103h102v102h102v102h-102v103h-102v102h-103v103h-102v102h-103v410h922v-205h-717v-103h103v-102h102v-102h102v-103h103v-102h102v-103h103v-102h-103v-102h-102v-103h-103v-102h-102v-103h-102v-204h614v-205h-922z" />
    <glyph glyph-name="minus" unicode="&#x2212;" horiz-adv-x="1228" 
d="M102 717h1024v-205h-1024v205z" />
    <glyph glyph-name="radical" unicode="&#x221a;" horiz-adv-x="1433" 
d="M512 -410v103h-102v102h-103v205h-102v205h-103v102h205v-102h103v-205h102v-205h102v205h103v307h102v307h103v308h102v102h307v-205h-205v-205h-102v-307h-102v-307h-103v-307h-102v-103h-205z" />
    <glyph glyph-name="integral" unicode="&#x222b;" horiz-adv-x="1024" 
d="M102 -307v205h205v102h103v1126h102v205h102v103h308v-205h-205v-205h-103v-1126h-102v-103h-102v-102h-308z" />
    <glyph glyph-name="approxequal" unicode="&#x2248;" horiz-adv-x="1331" 
d="M307 922v102h307v-102h103v-103h102v-102h103v102h102v103h205v-205h-103v-103h-102v-102h-307v102h-103v103h-102v102h-102v-102h-103v-103h-205v205h103v103h102zM102 102v205h103v103h102v102h307v-102h103v-103h102v-102h103v102h102v103h205v-205h-103v-103h-102
v-102h-307v102h-103v103h-102v102h-102v-102h-103v-103h-205z" />
    <glyph glyph-name="notequal" unicode="&#x2260;" 
d="M205 410h307v102h102v102h-409v205h512v103h102v102h205v-102h-102v-103h102v-205h-205v-102h-102v-102h307v-205h-512v-103h-102v-102h-205v102h102v103h-102v205z" />
    <glyph glyph-name="lessequal" unicode="&#x2264;" 
d="M307 410h-205v307h205v102h205v103h205v102h307v-102h-102v-103h-205v-102h-205v-103h-205v-102h205v-102h205v-103h205v-102h102v-103h-307v103h-205v102h-205v103zM102 -102v102h922v-102h-922z" />
    <glyph glyph-name="greaterequal" unicode="&#x2265;" 
d="M819 410v-103h-205v-102h-204v-103h-308v103h103v102h205v103h204v102h205v102h-205v103h-204v102h-205v103h-103v102h308v-102h204v-103h205v-102h205v-307h-205zM102 -102v102h922v-102h-922z" />
    <glyph glyph-name="uni004A0301" horiz-adv-x="1024" 
d="M717 1434h205v-1229h-103v-103h-102v-102h-410v102h-102v103h-103v205h103v102h102v-205h103v-102h204v102h103v1127zM358 1638v205h103v103h205v-205h-103v-103h-205z" />
    <glyph glyph-name="C.ss001" horiz-adv-x="1433" 
d="M717 1229v-103h-205v-102h-102v-205h-103v-307h103v-102h102v-103h102v-102h205v102h205v103h102v102h205v-205h-102v-102h-205v-103h-102v-102h-308v102h-204v103h-103v102h-102v103h-103v512h103v204h102v103h205v102h102v103h308v-103h102v-102h102v-103h103v-102h102
v-205h-205v205h-204v205h-205z" />
    <glyph glyph-name="G.ss01" horiz-adv-x="1433" 
d="M717 1229v-103h-205v-102h-102v-205h-103v-307h103v-102h102v-103h102v-102h205v102h205v103h102v204h-102v-102h-307v102h-103v103h717v-717h-205v205h-102v-103h-102v-102h-308v102h-204v103h-103v102h-102v103h-103v512h103v204h102v103h205v102h102v103h308v-103h102
v-102h102v-103h103v-102h102v-102h-205v102h-204v205h-205z" />
    <glyph glyph-name="M.ss01" horiz-adv-x="2150" 
d="M102 0v1024h103v205h102v102h103v103h307v-103h102v-102h103v-410h102v-205h102v205h103v410h102v102h103v103h307v-103h102v-102h103v-205h102v-1024h-205v922h-102v204h-103v103h-102v-103h-102v-307h-103v-307h-102v-205h-103v-102h-102v102h-102v205h-103v307h-102
v307h-103v103h-102v-103h-102v-204h-103v-922h-205z" />
    <glyph glyph-name="N.ss01" horiz-adv-x="1331" 
d="M102 0v1434h205v-103h103v-102h102v-103h102v-102h103v-102h102v-103h103v-102h102v717h205v-1434h-205v410h-102v102h-103v102h-102v103h-103v102h-102v103h-102v102h-103v-1024h-205z" />
    <glyph glyph-name="O.ss01" horiz-adv-x="1433" 
d="M717 1229v-103h-205v-102h-102v-205h-103v-307h103v-102h102v-103h102v-102h205v102h103v103h102v102h102v410h-102v102h-102v205h-205zM102 410v512h103v204h102v103h205v102h102v103h308v-103h102v-102h102v-103h103v-102h102v-512h-102v-205h-103v-102h-102v-103h-205
v-102h-205v102h-204v103h-103v102h-102v103h-103z" />
    <glyph glyph-name="Q.ss01" horiz-adv-x="1536" 
d="M717 1229v-103h-205v-102h-102v-205h-103v-307h103v-102h102v-103h102v-102h205v102h103v103h-103v204h-102v103h205v-103h102v-102h102v410h-102v102h-102v205h-205zM102 410v512h103v204h102v103h205v102h102v103h308v-103h102v-102h102v-103h103v-102h102v-512h-102
v-205h102v-205h103v-102h-205v102h-103v103h-102v-103h-205v-102h-205v102h-204v103h-103v102h-102v103h-103z" />
    <glyph glyph-name="W.ss01" horiz-adv-x="2150" 
d="M102 1434h205v-922h103v-205h102v-102h102v102h103v205h102v307h103v205h102v102h102v-102h103v-205h102v-307h103v-205h102v-102h102v102h103v205h102v922h205v-1024h-102v-205h-103v-103h-102v-102h-307v102h-103v103h-102v307h-103v205h-102v-205h-102v-307h-103v-103
h-102v-102h-307v102h-103v103h-102v205h-103v1024z" />
    <glyph glyph-name="i.loclTRK" horiz-adv-x="409" 
d="M102 1024h205v-1024h-205v1024zM102 1229v205h205v-205h-205z" />
    <glyph glyph-name="uni006A0301" horiz-adv-x="614" 
d="M307 -205v-102h-307v205h205v102h102v1024h205v-1126h-102v-103h-103zM154 1229v205h102v102h205v-205h-103v-102h-204z" />
    <glyph glyph-name="g.ss001" 
d="M1024 -307h-102v-103h-717v103h-103v205h205v-103h512v307h-102v-102h-410v102h-102v103h-103v614h103v103h102v102h410v-102h102v102h205v-1331zM307 307h103v-102h409v512h-102v102h-307v-102h-103v-410z" />
    <glyph glyph-name="y.ss001" 
d="M1024 -307h-102v-103h-717v103h-103v205h205v-103h512v307h-102v-102h-410v102h-102v103h-103v819h205v-717h103v-102h307v102h102v717h205v-1331z" />
    <glyph glyph-name="v.ss01" horiz-adv-x="1024" 
d="M102 1024h205v-614h103v-205h204v205h103v614h205v-717h-103v-102h-102v-103h-103v-102h-204v102h-103v103h-102v102h-103v717z" />
    <glyph glyph-name="w.ss01" horiz-adv-x="1945" 
d="M102 1024h205v-205h103v-205h102v-204h102v-103h103v205h102v205h103v102h102v-102h102v-205h103v-205h102v103h103v204h102v205h102v205h205v-307h-102v-205h-103v-205h-102v-205h-102v-102h-205v102h-103v103h-102v307h-102v-307h-103v-103h-102v-102h-205v102h-102
v205h-103v205h-102v205h-103v307z" />
    <glyph glyph-name="x.ss01" 
d="M819 922v102h205v-205h-102v-102h-103v-103h-102v-204h102v-103h103v-102h102v-205h-205v102h-102v103h-103v205h-102v-205h-102v-103h-103v-102h-205v205h103v102h102v103h103v204h-103v103h-102v102h-103v205h205v-102h103v-103h102v-205h102v205h103v103h102z" />
    <glyph glyph-name="uni030C.alt" horiz-adv-x="0" 
d="M102 1434h205v-308h-102v103h-103v205z" />
    <glyph glyph-name="pixel" horiz-adv-x="102" 
d="M0 0v102h102v-102h-102z" />
    </font>
</defs>
</svg>
